<svg width="55" height="67" viewBox="0 0 55 67" fill="none" xmlns="http://www.w3.org/2000/svg">
<path d="M50.8123 0.0093664C54.6041 12.96 48.9871 22.9684 41.0157 32.25C32.8195 41.7931 22.3855 47.1778 9.40422 48.9617C13.9814 43.3646 20.0912 39.342 22.465 31.3381C20.8784 32.2162 19.9378 32.4373 19.5023 33.0294C15.0109 39.1907 9.40408 44.1695 3.30187 48.6568C2.52733 49.222 1.75685 49.8282 1.13462 50.5511C-0.550127 52.5164 -0.346972 54.3242 1.6666 55.9066C2.16915 56.2999 2.73615 56.6062 3.3212 56.8742C8.78943 59.4363 14.2275 62.0624 18.3303 66.8576C18.7235 60.8829 14.909 57.7479 10.3083 55.0867C15.635 53.1731 20.734 51.8088 25.4237 49.5715C39.1926 42.9994 49.1721 32.7414 53.6084 17.9081C54.7622 14.0508 54.633 9.69819 54.5191 5.59509C54.4382 2.64893 53.5956 2.04843 50.8089 -5.39246e-05L50.8123 0.0093664Z" fill="#FEBC2F"/>
</svg>
