<svg width="30" height="30" viewBox="0 0 30 30" fill="none" xmlns="http://www.w3.org/2000/svg">
<g clip-path="url(#clip0_2153_9427)">
<path d="M20.2502 14.6211C20.2502 11.1748 17.4465 8.37109 14.0002 8.37109C10.554 8.37109 7.75022 11.1748 7.75022 14.6211C7.75022 18.0673 10.554 20.8711 14.0002 20.8711C17.4465 20.8711 20.2502 18.0673 20.2502 14.6211ZM14.0002 23.3711C10.1202 23.3711 6.63522 25.7061 5.32897 29.1811C5.18522 29.5648 5.23897 29.9948 5.47147 30.3323C5.70397 30.6698 6.08897 30.8711 6.49897 30.8711H21.499C21.909 30.8711 22.294 30.6698 22.5265 30.3323C22.759 29.9948 22.8127 29.5648 22.669 29.1811C21.3627 25.7061 17.879 23.3711 13.9977 23.3711H14.0002ZM25.484 22.1836C25.104 22.7598 24.3302 22.9211 23.7527 22.5398L22.1652 21.4948C21.3415 20.9523 21.0865 19.8511 21.584 18.9886C22.5452 17.3236 22.9227 15.4186 22.6777 13.4773C22.1827 9.54734 18.9615 6.37359 15.0202 5.92859C12.4865 5.64609 10.054 6.41359 8.17146 8.09484C6.31522 9.75484 5.25022 12.1336 5.25022 14.6211C5.25022 16.1561 5.65272 17.6661 6.41522 18.9861C6.91147 19.8498 6.65772 20.9511 5.83647 21.4948L4.24772 22.5398C4.03647 22.6786 3.79772 22.7461 3.56147 22.7461C3.15522 22.7461 2.75522 22.5486 2.51647 22.1836C2.13647 21.6073 2.29647 20.8311 2.87272 20.4523L3.97272 19.7286C3.17022 18.1548 2.74897 16.4011 2.74897 14.6223C2.74897 12.8311 3.19147 11.0911 3.98772 9.52609L2.87146 8.79109C2.29396 8.41109 2.13522 7.63609 2.51522 7.05984C2.89647 6.48484 3.67147 6.32484 4.24647 6.70359L5.36147 7.43734C5.71397 7.01234 6.08771 6.60359 6.50396 6.23109C8.25272 4.66984 10.4427 3.71109 12.749 3.45109V2.12109C12.749 1.43109 13.3077 0.871094 13.999 0.871094C14.6902 0.871094 15.249 1.43109 15.249 2.12109V3.44109C15.2665 3.44234 15.2827 3.44109 15.3002 3.44359C18.2165 3.77234 20.8227 5.26609 22.6352 7.43609L23.7502 6.70109C24.3277 6.32109 25.1015 6.48234 25.4815 7.05734C25.8615 7.63359 25.7027 8.40984 25.1252 8.78859L24.0202 9.51609C24.599 10.6398 24.994 11.8686 25.1577 13.1623C25.4465 15.4536 25.0552 17.7111 24.0265 19.7261L25.1265 20.4511C25.7027 20.8311 25.8627 21.6061 25.4827 22.1823L25.484 22.1836Z" fill="#DD2C5C"/>
</g>
<defs>
<clipPath id="clip0_2153_9427">
<rect width="30" height="30" fill="white"/>
</clipPath>
</defs>
</svg>
