<svg width="16" height="16" viewBox="0 0 16 16" fill="none" xmlns="http://www.w3.org/2000/svg">
<path d="M8.00016 14.6673C11.6821 14.6673 14.6668 11.6825 14.6668 8.00065C14.6668 4.31875 11.6821 1.33398 8.00016 1.33398C4.31826 1.33398 1.3335 4.31875 1.3335 8.00065C1.3335 11.6825 4.31826 14.6673 8.00016 14.6673Z" stroke="white"/>
<path d="M6.3335 7.46588V8.53282C6.3335 9.54568 6.3335 10.0521 6.63734 10.2568C6.94116 10.4615 7.3567 10.235 8.18783 9.78208L9.16663 9.24855C10.1668 8.70348 10.6668 8.43095 10.6668 7.99935C10.6668 7.56775 10.1668 7.29522 9.16663 6.75015L8.18783 6.21664C7.3567 5.76368 6.94116 5.5372 6.63734 5.7419C6.3335 5.94659 6.3335 6.45302 6.3335 7.46588Z" fill="white"/>
</svg>
