<svg width="92" height="87" viewBox="0 0 92 87" fill="none" xmlns="http://www.w3.org/2000/svg">
<path d="M69.1649 78.8718C69.7069 78.7104 69.9614 78.7094 70.1035 78.5858C81.3474 68.2746 87.7304 55.6433 88.0719 40.2557C88.1553 36.3456 87.2253 32.5329 85.5075 28.9608C81.804 21.2527 73.9226 17.0379 65.4739 18.2507C61.098 18.8808 57.0167 20.1713 53.7017 23.3285C53.8129 25.4088 54.0539 27.4481 54.0042 29.4886C53.9238 32.6995 52.8142 35.5381 50.3135 37.6925C48.4317 39.3131 46.3987 39.764 44.9968 38.8127C43.2318 37.6152 42.8625 35.6966 43.4181 33.9242C44.1865 31.4463 45.3299 29.0592 46.5477 26.7516C47.3351 25.2594 48.5371 23.981 49.5362 22.6349C46.7503 15.0017 38.6063 13.1399 30.3008 18.2677C30.2324 19.4314 30.2328 20.6829 30.0682 21.9099C29.4762 26.3239 27.5867 30.0128 23.6589 32.3417C22.1855 33.2169 20.4647 33.7715 18.7978 32.6268C17.5108 31.7394 17.1134 29.7538 17.8492 27.5808C19.0237 24.1322 21.293 21.4138 23.8806 18.9361C24.7821 18.0756 25.7398 17.2763 26.6333 16.483C22.7715 4.53559 10.0254 -1.87489 0.219692 5.21058C0.14219 4.29494 -0.147221 3.55348 0.0942702 3.06036C0.362149 2.51819 1.04847 2.06538 1.64606 1.81985C7.32469 -0.487504 12.9822 -0.934948 18.4316 2.45131C22.4907 4.97852 25.6371 8.41944 28.0492 12.5413C28.394 13.1259 28.7527 13.7077 29.117 14.2811C29.1705 14.3648 29.3021 14.4035 29.5852 14.5786C30.1816 14.3988 30.9416 14.2002 31.6719 13.9277C40.7209 10.5549 46.1326 12.0786 52.2711 19.9161C53.0875 19.4586 53.9443 18.9856 54.7969 18.4916C59.8062 15.5785 65.1827 14.3588 70.945 15.0324C80.4259 16.1342 87.7214 22.6152 90.2638 32.1245C91.6464 37.3003 91.8308 42.524 90.9231 47.781C88.7105 60.5227 83.0368 71.3503 73.0051 79.719C72.4768 80.1614 71.9569 80.6094 71.4454 81.063C71.3785 81.1275 71.3692 81.2604 71.1921 81.7841C73.6675 81.8616 75.8716 81.1794 78.0888 80.6329C80.2641 80.0948 82.4208 79.466 84.7649 78.828C84.9341 80.6928 84.1236 81.6076 83.0017 82.2438C81.7095 82.9729 80.4037 83.814 78.9954 84.152C75.2162 85.0679 71.4102 85.9238 67.5666 86.4527C64.51 86.8793 63.3467 85.4209 64.2022 82.6923C66.0295 76.9131 67.8945 71.1407 69.7848 65.385C70.0807 64.4806 70.5964 63.655 71.1432 62.5175C72.7811 63.77 72.4221 65.0075 72.1579 66.1747C71.2153 70.2964 70.2349 74.4112 69.1887 78.8815L69.1649 78.8718ZM20.5097 30.0656C25.1841 28.436 27.5826 24.7452 26.8742 20.3779C24.0767 23.1822 21.3774 25.7191 20.5097 30.0656ZM46.3306 36.1103C50.2674 34.3254 51.6232 31.1237 50.3268 26.9417C48.1205 29.6837 46.2214 32.2903 46.3306 36.1103Z" fill="#FEBC2F"/>
</svg>
