<svg width="24" height="24" viewBox="0 0 24 24" fill="none" xmlns="http://www.w3.org/2000/svg">
<path opacity="0.4" d="M6.375 21H17.625C19.875 21 21 19.875 21 17.625V6.375C21 4.125 19.875 3 17.625 3H6.375C4.125 3 3 4.125 3 6.375V17.625C3 19.875 4.125 21 6.375 21Z" fill="#3B82F6"/>
<path d="M9.22173 14.9717C9.02973 14.9717 8.83773 14.8987 8.69173 14.7517L6.46975 12.5297C6.17675 12.2367 6.17675 11.7617 6.46975 11.4687L8.69173 9.24674C8.98473 8.95374 9.45974 8.95374 9.75274 9.24674C10.0457 9.53974 10.0457 10.0147 9.75274 10.3077L8.06075 11.9997L9.75274 13.6917C10.0457 13.9847 10.0457 14.4597 9.75274 14.7527C9.60574 14.8987 9.41373 14.9717 9.22173 14.9717ZM15.3078 14.7517L17.5297 12.5297C17.8227 12.2367 17.8227 11.7617 17.5297 11.4687L15.3078 9.24674C15.0148 8.95374 14.5398 8.95374 14.2468 9.24674C13.9538 9.53974 13.9538 10.0147 14.2468 10.3077L15.9387 11.9997L14.2468 13.6917C13.9538 13.9847 13.9538 14.4597 14.2468 14.7527C14.3928 14.8987 14.5848 14.9727 14.7768 14.9727C14.9688 14.9727 15.1618 14.8987 15.3078 14.7517ZM11.7277 16.1817L13.7277 8.18174C13.8287 7.77974 13.5838 7.37274 13.1828 7.27274C12.7758 7.17174 12.3728 7.41673 12.2728 7.81873L10.2728 15.8187C10.1718 16.2207 10.4167 16.6277 10.8177 16.7277C10.8797 16.7427 10.9408 16.7507 11.0008 16.7507C11.3358 16.7497 11.6427 16.5227 11.7277 16.1817Z" fill="#3B82F6"/>
</svg>
