<svg width="24" height="24" viewBox="0 0 24 24" fill="none" xmlns="http://www.w3.org/2000/svg">
<path opacity="0.4" fill-rule="evenodd" clip-rule="evenodd" d="M20 5C20 5 20 8.07902 20 8.19702C20 8.31502 19.908 8.5 19.7 8.5C19.433 8.5 14.9299 8.5 14.9299 8.5C12.8099 8.5 11.5 9.81994 11.5 11.9399V12H2V5C2 3 3 2 5 2H17C19 2 20 3 20 5Z" fill="#3B82F6"/>
<path d="M11.5 20.0601C11.5 20.3001 11.52 20.53 11.55 20.75H6.5C6.09 20.75 5.75 20.41 5.75 20C5.75 19.59 6.09 19.25 6.5 19.25H9V16H5C3 16 2 15 2 13V12H11.5V20.0601Z" fill="#3B82F6"/>
<path opacity="0.4" d="M14.928 22H20.071C21.357 22 21.999 21.3531 21.999 20.0581V11.9409C21.999 10.6469 21.356 9.99902 20.071 9.99902H14.928C13.642 9.99902 13 10.6459 13 11.9409V20.0581C13 21.3531 13.643 22 14.928 22Z" fill="#3B82F6"/>
<path d="M17.5 20.5C18.0523 20.5 18.5 20.0523 18.5 19.5C18.5 18.9477 18.0523 18.5 17.5 18.5C16.9477 18.5 16.5 18.9477 16.5 19.5C16.5 20.0523 16.9477 20.5 17.5 20.5Z" fill="#3B82F6"/>
</svg>
