<svg width="24" height="24" viewBox="0 0 24 24" fill="none" xmlns="http://www.w3.org/2000/svg">
<path opacity="0.4" d="M8 21H16C18 21 19 20 19 18V6C19 4 18 3 16 3H8C6 3 5 4 5 6V18C5 20 6 21 8 21Z" fill="#3B82F6"/>
<path d="M13.5 6.75H10.5C10.086 6.75 9.75 6.414 9.75 6C9.75 5.586 10.086 5.25 10.5 5.25H13.5C13.914 5.25 14.25 5.586 14.25 6C14.25 6.414 13.914 6.75 13.5 6.75Z" fill="#3B82F6"/>
<path d="M12 19C12.5523 19 13 18.5523 13 18C13 17.4477 12.5523 17 12 17C11.4477 17 11 17.4477 11 18C11 18.5523 11.4477 19 12 19Z" fill="#3B82F6"/>
</svg>
