<svg width="24" height="24" viewBox="0 0 24 24" fill="none" xmlns="http://www.w3.org/2000/svg">
<path opacity="0.4" d="M19.001 6H6.94202L6.73303 4.614C6.53903 3.244 5.39301 2.25 4.01001 2.25H3.75C3.336 2.25 3 2.586 3 3C3 3.414 3.336 3.75 3.75 3.75H4.01001C4.63901 3.75 5.15902 4.202 5.24902 4.832L6.75 15.28C6.89 16.27 7.72998 17 8.72998 17H17C19.1 17 19.69 15.96 19.95 14.54L20.96 8.36C21.191 7.13 20.241 6 19.001 6Z" fill="#3B82F6"/>
<path d="M9.02063 22.25C8.33163 22.25 7.76562 21.69 7.76562 21C7.76562 20.31 8.32062 19.75 9.01062 19.75H9.02063C9.71063 19.75 10.2706 20.31 10.2706 21C10.2706 21.69 9.71063 22.25 9.02063 22.25Z" fill="#3B82F6"/>
<path d="M17.0206 22.25C16.3316 22.25 15.7656 21.69 15.7656 21C15.7656 20.31 16.3206 19.75 17.0106 19.75H17.0206C17.7106 19.75 18.2706 20.31 18.2706 21C18.2706 21.69 17.7106 22.25 17.0206 22.25Z" fill="#3B82F6"/>
<path d="M20.3201 12.25L20.0801 13.75H13C12.59 13.75 12.25 13.41 12.25 13C12.25 12.59 12.59 12.25 13 12.25H20.3201Z" fill="#3B82F6"/>
</svg>
