<svg width="242" height="37" viewBox="0 0 242 37" fill="none" xmlns="http://www.w3.org/2000/svg">
<g clip-path="url(#clip0_2262_3690)">
<path d="M240.155 23.637C225.365 19.5072 209.241 17.2148 193.469 15.3011C177.556 13.3682 161.474 12.0747 145.379 11.4503C113.302 10.2067 81.2246 11.5411 50.1807 15.5007C41.4979 16.6072 32.9243 17.9854 24.4646 19.5351C20.3701 20.2846 16.3442 21.0927 12.3948 22.0628C8.14005 23.1072 4.14944 24.3373 0.0740701 25.5862C-0.0535682 25.6257 0.0201083 25.7574 0.167872 25.7365C7.64832 24.5978 15.1811 23.6 22.6084 22.338C30.1838 21.0501 37.8483 19.9223 45.5768 18.9536C60.958 17.0253 76.4758 15.5966 92.2277 14.8257C123.58 13.2895 155.406 14.1591 186.765 17.5502C204.529 19.4694 221.824 22.6411 239.423 25.0638C241.011 25.2823 241.671 24.0612 240.159 23.6372L240.155 23.637Z" fill="#FFCC00"/>
<path d="M20.3229 16.3585C26.0663 16.0569 31.7306 15.009 37.3144 14.2545C42.7251 13.5248 48.1427 12.8256 53.6026 12.2114C64.7838 10.9548 75.9944 9.88076 87.3703 9.22967C109.945 7.93707 132.742 8.03928 155.514 9.32365C168.475 10.0542 181.411 11.2467 194.259 12.6972C195.311 12.8157 195.607 11.7517 194.562 11.5906C149.332 4.52968 101.619 4.36689 56.7918 9.51974C50.4753 10.2458 44.2049 11.1553 38.0337 12.1901C32.0315 13.1974 25.5217 14.2067 20.151 16.0813C19.9081 16.1658 20.0539 16.3714 20.3272 16.3562L20.3229 16.3585Z" fill="#FFCC00"/>
</g>
<defs>
<clipPath id="clip0_2262_3690">
<rect width="240.693" height="25.7613" fill="white" transform="translate(1.17548) rotate(2.61531)"/>
</clipPath>
</defs>
</svg>
