<svg width="30" height="30" viewBox="0 0 30 30" fill="none" xmlns="http://www.w3.org/2000/svg">
<path d="M30 20V26.25C30 27.2446 29.6049 28.1984 28.9017 28.9017C28.1984 29.605 27.2446 30.0001 26.25 30.0001H20C18.2464 29.9983 16.5241 29.5353 15.0058 28.6577C13.4876 27.7801 12.2268 26.5187 11.35 25C12.2923 24.9933 13.2315 24.8894 14.1525 24.6901C14.8539 25.5671 15.7437 26.2751 16.756 26.7615C17.7682 27.2479 18.8769 27.5004 20 27.5001H26.25C26.5815 27.5001 26.8995 27.3684 27.1339 27.1339C27.3683 26.8995 27.5 26.5816 27.5 26.25V20C27.4997 18.8766 27.2465 17.7676 26.7592 16.7553C26.2719 15.7431 25.563 14.8535 24.685 14.1525C24.8861 13.2317 24.9916 12.2926 25 11.35C26.5187 12.2269 27.7801 13.4876 28.6577 15.0059C29.5353 16.5241 29.9982 18.2464 30 20ZM22.4712 12.0638C22.5882 10.4533 22.357 8.8366 21.7936 7.32342C21.2301 5.81023 20.3475 4.43608 19.2057 3.29432C18.064 2.15256 16.6898 1.26996 15.1766 0.706491C13.6634 0.143021 12.0467 -0.0881129 10.4362 0.0287943C7.58239 0.35471 4.94616 1.71276 3.02397 3.84722C1.10178 5.98168 0.0262839 8.74526 0 11.6175L0 17.9175C0 21.0825 1.88375 22.5 3.75 22.5H10.875C13.7485 22.4753 16.5138 21.4005 18.6497 19.4782C20.7857 17.5559 22.1449 14.9188 22.4712 12.0638ZM17.4375 5.0638C18.3249 5.95317 19.0109 7.02279 19.4492 8.20028C19.8874 9.37777 20.0676 10.6356 19.9775 11.8888C19.7107 14.1184 18.6381 16.1736 16.9617 17.6675C15.2852 19.1614 13.1205 19.991 10.875 20H3.75C2.59 20 2.5 18.4063 2.5 17.9175V11.6175C2.51042 9.37301 3.34081 7.20968 4.8349 5.53464C6.32898 3.85961 8.38374 2.78838 10.6125 2.52254C10.82 2.50754 11.0275 2.50004 11.235 2.50004C12.3866 2.49897 13.5271 2.72484 14.5914 3.16474C15.6556 3.60464 16.6228 4.24995 17.4375 5.0638Z" fill="white"/>
</svg>
