<svg width="18" height="18" viewBox="0 0 18 18" fill="none" xmlns="http://www.w3.org/2000/svg">
<path d="M8.99976 16.022C10.4948 16.022 11.9285 15.8743 13.2572 15.6035C14.9169 15.2652 15.7467 15.096 16.504 14.1224C17.2612 13.1488 17.2612 12.0312 17.2612 9.79579V8.2038C17.2612 5.96844 17.2612 4.85077 16.504 3.87716C15.7467 2.90355 14.9169 2.7344 13.2572 2.39608C11.9285 2.12523 10.4948 1.97754 8.99976 1.97754C7.50468 1.97754 6.07097 2.12523 4.74225 2.39608C3.08261 2.7344 2.25278 2.90355 1.49553 3.87716C0.738281 4.85077 0.738281 5.96844 0.738281 8.2038V9.79579C0.738281 12.0312 0.738281 13.1488 1.49553 14.1224C2.25278 15.096 3.08261 15.2652 4.74225 15.6035C6.07097 15.8743 7.50468 16.022 8.99976 16.022Z" stroke="white"/>
<path d="M12.2732 9.25842C12.1506 9.7589 11.4983 10.1184 10.1936 10.8373C8.77455 11.6192 8.06506 12.0102 7.49039 11.8596C7.29575 11.8086 7.11648 11.7188 6.96594 11.5972C6.52148 11.2379 6.52148 10.4919 6.52148 8.99991C6.52148 7.50797 6.52148 6.76198 6.96594 6.40265C7.11648 6.28095 7.29575 6.19125 7.49039 6.14024C8.06506 5.9896 8.77455 6.38057 10.1936 7.1625C11.4983 7.88148 12.1506 8.24093 12.2732 8.74141C12.3149 8.91176 12.3149 9.08806 12.2732 9.25842Z" fill="white"/>
</svg>
