<svg width="28" height="28" viewBox="0 0 28 28" fill="none" xmlns="http://www.w3.org/2000/svg">
<g clip-path="url(#clip0_2262_3874)">
<path d="M3.5 19.8341C3.822 19.8341 4.08333 19.5728 4.08333 19.2508C4.08333 18.286 4.8685 17.5008 5.83333 17.5008H13.4167V19.2508C13.4167 19.5728 13.678 19.8341 14 19.8341C14.322 19.8341 14.5833 19.5728 14.5833 19.2508V17.5008H22.1667C23.1315 17.5008 23.9167 18.286 23.9167 19.2508C23.9167 19.5728 24.178 19.8341 24.5 19.8341C24.822 19.8341 25.0833 19.5728 25.0833 19.2508C25.0833 17.642 23.7755 16.3341 22.1667 16.3341H14.5833V13.9705C15.8223 13.8445 16.9995 13.3218 17.9235 12.483L18.6597 12.9123C19.0622 13.1468 19.5323 13.2133 19.9862 13.0943C20.4388 12.9753 20.8168 12.6871 21.0525 12.2835C21.2882 11.8798 21.3535 11.4085 21.2333 10.957C21.1143 10.5043 20.8273 10.1263 20.4237 9.89062L19.67 9.45079C19.7797 9.00279 19.8333 8.57929 19.8333 8.16745C19.8333 7.75562 19.7797 7.33212 19.67 6.88295L20.4237 6.44429C21.2567 5.95779 21.539 4.88445 21.0525 4.05029C20.5672 3.21845 19.4962 2.93262 18.6597 3.42145L17.9107 3.85779C17.2842 3.28845 16.5503 2.86495 15.7488 2.61295V1.75195C15.7488 0.78712 14.9637 0.00195312 13.9988 0.00195312C13.034 0.00195312 12.2488 0.78712 12.2488 1.75195V2.61295C11.4473 2.86495 10.7147 3.28845 10.087 3.85779L9.338 3.42145C8.93433 3.18579 8.463 3.12279 8.0115 3.24062C7.55883 3.35962 7.18083 3.64779 6.94517 4.05145C6.7095 4.45512 6.64417 4.92645 6.76433 5.37795C6.88333 5.83062 7.17033 6.20862 7.574 6.44545L8.32767 6.88412C8.218 7.33329 8.16433 7.75679 8.16433 8.16862C8.16433 8.58045 8.218 9.00395 8.32767 9.45195L7.574 9.89179C7.16917 10.1275 6.88217 10.5066 6.76433 10.9593C6.64417 11.4108 6.7095 11.8821 6.94517 12.2858C7.18083 12.6895 7.55883 12.9776 8.0115 13.0966C8.463 13.2156 8.93433 13.1515 9.338 12.9146L10.0742 12.4853C10.9993 13.3241 12.1753 13.8468 13.4143 13.9728V16.3365H5.831C4.22217 16.3365 2.91433 17.6443 2.91433 19.2531C2.91433 19.5751 3.17567 19.8365 3.49767 19.8365L3.5 19.8341ZM10.5933 11.356C10.479 11.2346 10.325 11.1716 10.1675 11.1716C10.066 11.1716 9.9645 11.1973 9.8735 11.251L8.75117 11.9055C8.61583 11.9848 8.45833 12.0046 8.31017 11.9661C8.15967 11.9265 8.03367 11.8308 7.95433 11.6966C7.87617 11.5613 7.854 11.405 7.89367 11.2545C7.93333 11.104 8.029 10.978 8.16317 10.8986L9.30533 10.2313C9.541 10.0936 9.6495 9.81245 9.56783 9.55229C9.40683 9.04129 9.33217 8.60029 9.33217 8.16745C9.33217 7.73462 9.40683 7.29362 9.56783 6.78145C9.6495 6.52129 9.541 6.24012 9.30533 6.10245L8.16317 5.43629C7.8855 5.27412 7.79217 4.91712 7.95317 4.63829C8.11417 4.36179 8.47 4.26612 8.75117 4.42829L9.88517 5.08979C10.1173 5.22629 10.4183 5.18429 10.6038 4.98595C11.2455 4.30229 12.061 3.83212 12.9617 3.62679C13.2277 3.56612 13.4155 3.33045 13.4155 3.05862V1.75195C13.4155 1.42995 13.678 1.16862 13.9988 1.16862C14.3197 1.16862 14.5822 1.42995 14.5822 1.75195V3.05862C14.5822 3.33045 14.77 3.56729 15.036 3.62679C15.9367 3.83212 16.7533 4.30229 17.3938 4.98595C17.5782 5.18429 17.8803 5.22745 18.1125 5.08979L19.2465 4.42829C19.3795 4.35129 19.5335 4.32795 19.6887 4.36879C19.8392 4.40845 19.9652 4.50412 20.0445 4.63829C20.1227 4.77362 20.1448 4.92995 20.1052 5.08045C20.0655 5.23095 19.9698 5.35695 19.8357 5.43512L18.6935 6.10129C18.459 6.23895 18.3493 6.52012 18.431 6.78029C18.592 7.29245 18.6667 7.73345 18.6667 8.16629C18.6667 8.59912 18.592 9.04012 18.431 9.55112C18.3493 9.81129 18.4567 10.0925 18.6935 10.2301L19.8357 10.8975C19.9698 10.9756 20.0655 11.1016 20.1052 11.2521C20.1448 11.4026 20.1238 11.5601 20.0445 11.6943C19.9663 11.8285 19.8392 11.9241 19.6887 11.9638C19.5405 12.0011 19.3807 11.9825 19.2465 11.9031L18.1253 11.2486C17.8932 11.1121 17.5922 11.1541 17.4055 11.3536C16.513 12.3068 15.3032 12.8318 13.9988 12.8318C12.6945 12.8318 11.4847 12.3068 10.5922 11.3536L10.5933 11.356ZM15.1667 21.0008H12.8333C11.5465 21.0008 10.5 22.0473 10.5 23.3341V25.6675C10.5 26.9543 11.5465 28.0008 12.8333 28.0008H15.1667C16.4535 28.0008 17.5 26.9543 17.5 25.6675V23.3341C17.5 22.0473 16.4535 21.0008 15.1667 21.0008ZM16.3333 25.6675C16.3333 26.3115 15.8107 26.8341 15.1667 26.8341H12.8333C12.1893 26.8341 11.6667 26.3115 11.6667 25.6675V23.3341C11.6667 22.6901 12.1893 22.1675 12.8333 22.1675H15.1667C15.8107 22.1675 16.3333 22.6901 16.3333 23.3341V25.6675ZM25.6667 21.0008H23.3333C22.0465 21.0008 21 22.0473 21 23.3341V25.6675C21 26.9543 22.0465 28.0008 23.3333 28.0008H25.6667C26.9535 28.0008 28 26.9543 28 25.6675V23.3341C28 22.0473 26.9535 21.0008 25.6667 21.0008ZM26.8333 25.6675C26.8333 26.3115 26.3107 26.8341 25.6667 26.8341H23.3333C22.6893 26.8341 22.1667 26.3115 22.1667 25.6675V23.3341C22.1667 22.6901 22.6893 22.1675 23.3333 22.1675H25.6667C26.3107 22.1675 26.8333 22.6901 26.8333 23.3341V25.6675ZM4.66667 21.0008H2.33333C1.0465 21.0008 0 22.0473 0 23.3341V25.6675C0 26.9543 1.0465 28.0008 2.33333 28.0008H4.66667C5.9535 28.0008 7 26.9543 7 25.6675V23.3341C7 22.0473 5.9535 21.0008 4.66667 21.0008ZM5.83333 25.6675C5.83333 26.3115 5.31067 26.8341 4.66667 26.8341H2.33333C1.68933 26.8341 1.16667 26.3115 1.16667 25.6675V23.3341C1.16667 22.6901 1.68933 22.1675 2.33333 22.1675H4.66667C5.31067 22.1675 5.83333 22.6901 5.83333 23.3341V25.6675ZM16.3333 8.16745C16.3333 6.88062 15.2868 5.83412 14 5.83412C12.7132 5.83412 11.6667 6.88062 11.6667 8.16745C11.6667 9.45429 12.7132 10.5008 14 10.5008C15.2868 10.5008 16.3333 9.45429 16.3333 8.16745ZM12.8333 8.16745C12.8333 7.52462 13.356 7.00079 14 7.00079C14.644 7.00079 15.1667 7.52462 15.1667 8.16745C15.1667 8.81029 14.644 9.33412 14 9.33412C13.356 9.33412 12.8333 8.81029 12.8333 8.16745Z" fill="white"/>
</g>
<defs>
<clipPath id="clip0_2262_3874">
<rect width="28" height="28" fill="white"/>
</clipPath>
</defs>
</svg>
