<svg width="28" height="28" viewBox="0 0 28 28" fill="none" xmlns="http://www.w3.org/2000/svg">
<g clip-path="url(#clip0_2262_3882)">
<path d="M9.31233 22.5155C9.24117 22.7757 9.00667 22.946 8.75 22.946C3.5 21.5833 0 16.919 0 11.6667C0 5.23367 5.23367 0 11.6667 0C17.4405 0 22.2868 4.13233 23.1887 9.82567C23.2388 10.143 23.0207 10.4428 22.7033 10.493C22.3907 10.5408 22.0873 10.3273 22.036 10.0077C21.2252 4.88483 16.863 1.16667 11.6667 1.16667C5.8765 1.16667 1.16667 5.87767 1.16667 11.6667C1.16667 16.394 4.34817 20.5602 8.90283 21.8003C9.21433 21.8843 9.39633 22.2063 9.31233 22.5155ZM28 20.4167V25.0833C28 26.6922 26.6922 28 25.0833 28H17.0578C14.8412 28 12.9162 26.4215 12.481 24.248L11.746 21.735C11.5278 20.6547 11.7927 19.5965 12.46 18.7822C13.1273 17.9678 14.1143 17.5 15.1667 17.5H18.8802L18.2035 13.6908C18.1942 13.615 18.1813 13.0422 18.1953 12.9932C18.3365 12.4752 18.6643 12.0668 19.1193 11.844C19.5778 11.6188 20.1087 11.6118 20.6127 11.8207C20.9102 11.9443 21.1995 12.25 21.4083 12.6595L23.9668 17.4988H25.0822C26.691 17.4988 27.9988 18.8067 27.9988 20.4155L28 20.4167ZM23.3823 18.5068C23.1968 18.3995 23.0417 18.2432 22.9367 18.046L20.3735 13.1985C20.2533 12.9617 20.1448 12.8882 20.1437 12.8882C19.9768 12.8193 19.7878 12.817 19.6327 12.8917C19.5043 12.9547 19.4052 13.0713 19.3457 13.2242L19.362 13.5637L20.0293 17.297C20.0912 17.6365 19.999 17.9842 19.7762 18.249C19.551 18.5162 19.2255 18.6667 18.8802 18.6667H15.1667C14.4643 18.6667 13.8075 18.9782 13.3618 19.5207C12.9162 20.0632 12.74 20.7702 12.8777 21.4573L13.6127 23.9703C13.9498 25.648 15.3942 26.8322 17.0567 26.8322H23.3357L23.3812 18.5057L23.3823 18.5068ZM26.8333 20.4167C26.8333 19.4518 26.0482 18.6667 25.0833 18.6667H24.5478L24.5035 26.8333H25.0833C26.0482 26.8333 26.8333 26.0482 26.8333 25.0833V20.4167ZM17.5525 8.75C17.7812 8.52367 17.7835 8.15383 17.5572 7.92517C17.332 7.69533 16.9622 7.69417 16.7323 7.9205L11.669 12.9302C11.0168 13.5753 9.95867 13.5742 9.31 12.9302L6.82733 10.4767C6.5975 10.2492 6.22767 10.2538 6.0025 10.4813C5.77617 10.7112 5.7785 11.0798 6.00717 11.3062L8.48983 13.7597C9.04167 14.3045 9.765 14.5775 10.4895 14.5775C11.214 14.5775 11.9385 14.3045 12.4903 13.7585L17.5537 8.74883L17.5525 8.75Z" fill="white"/>
</g>
<defs>
<clipPath id="clip0_2262_3882">
<rect width="28" height="28" fill="white"/>
</clipPath>
</defs>
</svg>
