<svg width="28" height="28" viewBox="0 0 28 28" fill="none" xmlns="http://www.w3.org/2000/svg">
<g clip-path="url(#clip0_2262_3890)">
<path d="M20.4167 12.8333C16.2353 12.8333 12.8333 16.2353 12.8333 20.4167C12.8333 24.598 16.2353 28 20.4167 28C24.598 28 28 24.598 28 20.4167C28 16.2353 24.598 12.8333 20.4167 12.8333ZM20.4167 26.8333C16.8793 26.8333 14 23.9552 14 20.4167C14 16.8782 16.8793 14 20.4167 14C23.954 14 26.8333 16.8782 26.8333 20.4167C26.8333 23.9552 23.954 26.8333 20.4167 26.8333ZM21.9963 21.1703C22.2238 21.3978 22.2238 21.7677 21.9963 21.9952C21.882 22.1095 21.7327 22.1655 21.5833 22.1655C21.434 22.1655 21.2847 22.1083 21.1703 21.9952L20.0037 20.8285C19.894 20.7188 19.8333 20.5707 19.8333 20.4155V18.0822C19.8333 17.7602 20.0947 17.4988 20.4167 17.4988C20.7387 17.4988 21 17.7602 21 18.0822V20.174L21.9963 21.1703ZM22.75 4.66667H20.384C20.0923 2.04517 17.864 0 15.1667 0H12.25C9.55267 0 7.32317 2.04517 7.03267 4.66667H5.25C2.3555 4.66667 0 7.02217 0 9.91667V22.75C0 25.6445 2.3555 28 5.25 28H12.25C12.572 28 12.8333 27.7387 12.8333 27.4167C12.8333 27.0947 12.572 26.8333 12.25 26.8333H5.25C2.99833 26.8333 1.16667 25.0017 1.16667 22.75V15.1667H11.0833C11.4053 15.1667 11.6667 14.9053 11.6667 14.5833C11.6667 14.2613 11.4053 14 11.0833 14H1.16667V9.91667C1.16667 7.665 2.99833 5.83333 5.25 5.83333H22.75C25.0017 5.83333 26.8333 7.665 26.8333 9.91667V12.25C26.8333 12.572 27.0947 12.8333 27.4167 12.8333C27.7387 12.8333 28 12.572 28 12.25V9.91667C28 7.02217 25.6445 4.66667 22.75 4.66667ZM12.25 1.16667H15.1667C17.22 1.16667 18.9245 2.69033 19.208 4.66667H8.20867C8.49217 2.69033 10.1967 1.16667 12.25 1.16667Z" fill="white"/>
</g>
<defs>
<clipPath id="clip0_2262_3890">
<rect width="28" height="28" fill="white"/>
</clipPath>
</defs>
</svg>
