<svg width="68" height="54" viewBox="0 0 68 54" fill="none" xmlns="http://www.w3.org/2000/svg">
<path d="M0.00943051 3.98317C12.8799 -0.0723144 23.001 5.33912 32.4435 13.1193C42.1519 21.1189 47.7486 31.4407 49.7972 44.3828C44.1078 39.9209 39.9613 33.8945 31.9106 31.6847C32.821 33.253 33.0612 34.189 33.662 34.6122C39.9138 38.9769 45.0061 44.4808 49.6171 50.4901C50.198 51.253 50.8198 52.0109 51.5553 52.6182C53.5546 54.2625 55.3578 54.0225 56.8988 51.977C57.2817 51.4665 57.5764 50.8934 57.8324 50.303C60.2823 44.7836 62.7967 39.293 67.5072 35.0931C61.5256 34.822 58.4692 38.6998 55.9025 43.3539C53.8805 38.0673 52.4124 32.9973 50.0798 28.3542C43.2278 14.7225 32.7681 4.95451 17.8473 0.822157C13.9673 -0.252675 9.6182 -0.0345702 5.51828 0.163135C2.57439 0.30412 1.99122 1.15882 8.12666e-05 3.98675L0.00943051 3.98317Z" fill="#FEBC2F"/>
</svg>
