<svg width="28" height="28" viewBox="0 0 28 28" fill="none" xmlns="http://www.w3.org/2000/svg">
<path d="M9.37748 23.3315H18.7108V23.9148C18.7108 26.17 16.8826 27.9982 14.6275 27.9982H13.4608C11.2056 27.9982 9.37748 26.17 9.37748 23.9148V23.3315ZM13.9998 7.58382C12.391 7.58382 11.0831 8.89282 11.0831 10.5005C11.0831 12.1082 12.391 13.4172 13.9998 13.4172C15.6086 13.4172 16.9165 12.1082 16.9165 10.5005C16.9165 8.89282 15.6086 7.58382 13.9998 7.58382ZM24.5441 10.4982C24.5441 13.5198 23.2398 16.3957 20.9648 18.3883C20.1026 19.1443 19.4773 20.0368 19.1051 20.9982H8.86765C8.44998 19.975 7.78731 19.0125 6.89015 18.1783C4.38298 15.8438 3.19531 12.5433 3.63165 9.12383C4.23248 4.41049 8.09998 0.601326 12.8273 0.0669923C15.8221 -0.270174 18.8123 0.675992 21.0383 2.66516C23.2666 4.65666 24.5441 7.51149 24.5441 10.4982ZM18.9955 8.96866L19.6371 8.59882C20.196 8.27799 20.3885 7.56399 20.0665 7.00632C19.7445 6.44749 19.0316 6.25616 18.4728 6.57699L17.837 6.94216C17.1311 6.18149 16.2118 5.62849 15.1665 5.39049V4.66599C15.1665 4.02199 14.645 3.49933 13.9998 3.49933C13.3546 3.49933 12.8331 4.02199 12.8331 4.66599V5.39049C11.7878 5.62966 10.8673 6.18149 10.1626 6.94216L9.52681 6.57699C8.96798 6.25616 8.25515 6.44749 7.93315 7.00632C7.61231 7.56516 7.80481 8.27799 8.36248 8.59882L9.00415 8.96866C8.85365 9.45632 8.74981 9.96382 8.74981 10.4993C8.74981 11.0348 8.85365 11.5423 9.00415 12.03L8.36248 12.3998C7.80365 12.7207 7.61115 13.4347 7.93315 13.9923C8.15015 14.368 8.54215 14.5768 8.94581 14.5768C9.14298 14.5768 9.34365 14.5267 9.52681 14.4217L10.1626 14.0565C10.8685 14.8172 11.7878 15.3702 12.8331 15.6082V16.3327C12.8331 16.9767 13.3546 17.4993 13.9998 17.4993C14.645 17.4993 15.1665 16.9767 15.1665 16.3327V15.6082C16.2118 15.369 17.1323 14.8172 17.837 14.0565L18.4728 14.4217C18.656 14.5267 18.8566 14.5768 19.0538 14.5768C19.4575 14.5768 19.8506 14.3668 20.0665 13.9923C20.3873 13.4335 20.1948 12.7207 19.6371 12.3998L18.9955 12.03C19.146 11.5423 19.2498 11.0348 19.2498 10.4993C19.2498 9.96382 19.146 9.45632 18.9955 8.96866Z" fill="url(#paint0_linear_2262_4893)"/>
<defs>
<linearGradient id="paint0_linear_2262_4893" x1="6.71583" y1="-1.35006" x2="13.1688" y2="35.7521" gradientUnits="userSpaceOnUse">
<stop stop-color="#D63384"/>
<stop offset="1" stop-color="#DC3545"/>
</linearGradient>
</defs>
</svg>
