<svg width="28" height="28" viewBox="0 0 28 28" fill="none" xmlns="http://www.w3.org/2000/svg">
<g clip-path="url(#clip0_2262_4924)">
<path d="M14 0C11.2311 0 8.52431 0.821086 6.22202 2.35943C3.91973 3.89777 2.12532 6.08427 1.06569 8.64243C0.006066 11.2006 -0.271181 14.0155 0.269012 16.7313C0.809206 19.447 2.14258 21.9416 4.10051 23.8995C6.05845 25.8574 8.55301 27.1908 11.2687 27.731C13.9845 28.2712 16.7994 27.9939 19.3576 26.9343C21.9157 25.8747 24.1022 24.0803 25.6406 21.778C27.1789 19.4757 28 16.7689 28 14C27.996 10.2882 26.5197 6.72958 23.8951 4.10494C21.2704 1.4803 17.7118 0.0040146 14 0ZM14.5833 24.4708V22.9717C14.5833 21.6752 14.0683 20.4318 13.1516 19.5151C12.2348 18.5984 10.9915 18.0833 9.69501 18.0833H9.68334C9.20166 18.0834 8.72469 17.9885 8.27969 17.8041C7.83469 17.6197 7.43037 17.3495 7.08984 17.0088L3.52801 13.4447C3.62315 11.5912 4.20865 9.7963 5.22467 8.24326C6.2407 6.69022 7.65082 5.43475 9.31095 4.60517C10.9711 3.77558 12.8217 3.4016 14.6737 3.52145C16.5257 3.6413 18.3127 4.25069 19.852 5.28733C19.5431 5.51405 19.17 5.63662 18.7868 5.63733H17.1138C16.8753 5.63733 16.6391 5.68437 16.4188 5.77576C16.1984 5.86715 15.9983 6.0011 15.8298 6.16993C15.6613 6.33876 15.5277 6.53917 15.4368 6.75967C15.3458 6.98018 15.2992 7.21647 15.2997 7.455V8.67067C15.2997 9.15181 15.1085 9.61325 14.7683 9.95348C14.4281 10.2937 13.9667 10.4848 13.4855 10.4848C13.2469 10.4842 13.0105 10.5307 12.7898 10.6216C12.5692 10.7125 12.3686 10.846 12.1997 11.0145C12.0307 11.1831 11.8967 11.3833 11.8052 11.6037C11.7138 11.8241 11.6667 12.0604 11.6667 12.299V13.5147C11.6667 13.9958 11.8578 14.4573 12.198 14.7975C12.5383 15.1377 12.9997 15.3288 13.4808 15.3288H18.3295C18.8107 15.3288 19.2721 15.52 19.6123 15.8602C19.9525 16.2004 20.1437 16.6619 20.1437 17.143V18.9163C20.1437 19.1547 20.1907 19.3907 20.282 19.6109C20.3733 19.8311 20.507 20.0312 20.6757 20.1997L21.6475 21.1715C19.8061 23.1407 17.2753 24.3227 14.5833 24.4708Z" fill="#DD2C5C"/>
</g>
<defs>
<clipPath id="clip0_2262_4924">
<rect width="28" height="28" fill="white"/>
</clipPath>
</defs>
</svg>
