<svg width="28" height="28" viewBox="0 0 28 28" fill="none" xmlns="http://www.w3.org/2000/svg">
<path d="M26.0105 2.59364C25.8904 2.3358 25.6839 2.13164 25.4272 2.01497C25.3455 1.97764 17.1322 -1.6332 9.97704 6.7003C8.79404 8.07814 4.79237 12.9735 4.62321 13.18C4.37354 13.4868 4.29187 13.8963 4.40621 14.2743C4.43654 14.3746 5.05604 16.3661 6.84571 18.5968L5.98004 19.459C5.28471 20.152 5.28237 21.2778 5.97537 21.9731L5.97771 21.9755C6.67071 22.6685 7.79537 22.6696 8.48954 21.9778L9.36337 21.1075C11.6232 22.9123 13.6182 23.5143 13.7174 23.5435C14.093 23.6531 14.4979 23.5726 14.8 23.3253C15.0089 23.155 19.91 19.1615 21.2925 17.9843C29.7042 10.821 26.0479 2.6753 26.0105 2.59364ZM11.3735 16.6088C10.6712 15.9065 10.6712 14.7678 11.3735 14.0655C12.0759 13.3631 13.2145 13.3631 13.9169 14.0655C14.6192 14.7678 14.6192 15.9065 13.9169 16.6088C13.2145 17.3111 12.0759 17.3111 11.3735 16.6088ZM15.0975 12.8848C14.3952 12.1825 14.3952 11.0438 15.0975 10.3415C15.7999 9.63914 16.9385 9.63914 17.6409 10.3415C18.3432 11.0438 18.3432 12.1825 17.6409 12.8848C16.9385 13.5871 15.7999 13.5871 15.0975 12.8848ZM18.8215 9.1608C18.1192 8.45847 18.1192 7.3198 18.8215 6.61747C19.5239 5.91514 20.6625 5.91514 21.3649 6.61747C22.0672 7.3198 22.0672 8.45847 21.3649 9.1608C20.6625 9.86314 19.5239 9.86314 18.8215 9.1608Z" fill="#DD2C5C"/>
<path d="M2.78561 11.6821C3.80527 10.4361 7.10228 6.40879 8.17794 5.15579C8.98644 4.21312 9.81011 3.40462 10.6361 2.71162C8.71228 2.59029 6.01611 2.83179 4.38978 4.74862C2.74127 6.69229 1.37277 10.9868 1.22227 11.4698C1.11027 11.8291 1.16394 12.2281 1.39727 12.5233C1.55127 12.717 1.88611 12.9363 2.11244 12.983C2.24194 12.5151 2.46827 12.0706 2.78561 11.6821Z" fill="#DD2C5C"/>
<path d="M25.2833 17.3262C24.5763 18.1708 23.755 19.005 22.8041 19.8147C21.5395 20.8915 17.5075 24.1827 16.3011 25.165C15.9021 25.4905 15.453 25.7215 14.9805 25.8545C15.0283 26.0773 15.2091 26.3737 15.4378 26.5615C15.7283 26.7995 16.1308 26.8497 16.4901 26.7388C16.9755 26.5895 21.2886 25.2257 23.2381 23.5865C25.169 21.9613 25.4105 19.2628 25.2845 17.3273L25.2833 17.3262Z" fill="#DD2C5C"/>
</svg>
