<svg width="28" height="28" viewBox="0 0 28 28" fill="none" xmlns="http://www.w3.org/2000/svg">
<g clip-path="url(#clip0_2262_4912)">
<path d="M8.16634 9.33333H8.63301C8.63301 9.33333 7.35784 7.371 7.33567 7.32317C7.08486 6.78998 6.97271 6.20209 7.00963 5.61401C7.04656 5.02593 7.23136 4.45669 7.5469 3.95905C7.86244 3.46142 8.29851 3.05151 8.81469 2.76732C9.33086 2.48313 9.91044 2.33385 10.4997 2.33333H12.833V1.16667C12.833 0.857247 12.9559 0.560501 13.1747 0.341709C13.3935 0.122916 13.6903 0 13.9997 0C14.3091 0 14.6058 0.122916 14.8246 0.341709C15.0434 0.560501 15.1663 0.857247 15.1663 1.16667V2.33333H17.4997C18.0892 2.33326 18.6692 2.48211 19.1859 2.76606C19.7025 3.05 20.1391 3.45986 20.455 3.95758C20.771 4.4553 20.9561 5.02477 20.9932 5.61314C21.0303 6.2015 20.9181 6.78971 20.6672 7.32317C20.6497 7.371 19.3757 9.33333 19.3757 9.33333H19.833C20.1424 9.33333 20.4392 9.45625 20.658 9.67504C20.8768 9.89383 20.9997 10.1906 20.9997 10.5C20.9997 10.8094 20.8768 11.1062 20.658 11.325C20.4392 11.5437 20.1424 11.6667 19.833 11.6667H8.16634C7.85692 11.6667 7.56018 11.5437 7.34138 11.325C7.12259 11.1062 6.99967 10.8094 6.99967 10.5C6.99967 10.1906 7.12259 9.89383 7.34138 9.67504C7.56018 9.45625 7.85692 9.33333 8.16634 9.33333ZM23.333 23.3333H4.66634C4.0475 23.3333 3.45401 23.5792 3.01643 24.0168C2.57884 24.4543 2.33301 25.0478 2.33301 25.6667C2.33301 26.2855 2.57884 26.879 3.01643 27.3166C3.45401 27.7542 4.0475 28 4.66634 28H23.333C23.9518 28 24.5453 27.7542 24.9829 27.3166C25.4205 26.879 25.6663 26.2855 25.6663 25.6667C25.6663 25.0478 25.4205 24.4543 24.9829 24.0168C24.5453 23.5792 23.9518 23.3333 23.333 23.3333ZM19.1458 14H8.85351C8.26938 16.4241 7.40816 18.7729 6.28684 21H21.7067C20.5865 18.773 19.7271 16.4241 19.1458 14Z" fill="#DD2C5C"/>
</g>
<defs>
<clipPath id="clip0_2262_4912">
<rect width="28" height="28" fill="white"/>
</clipPath>
</defs>
</svg>
