<svg width="36" height="36" viewBox="0 0 36 36" fill="none" xmlns="http://www.w3.org/2000/svg">
<path d="M24 20.25V26.25C24 28.3713 24 29.432 24.6589 30.0911C25.318 30.75 26.3787 30.75 28.5 30.75C30.6213 30.75 31.6819 30.75 32.3409 30.0911C33 29.432 33 28.3713 33 26.25V20.25C33 18.1287 33 17.068 32.3409 16.4091C31.6819 15.75 30.6213 15.75 28.5 15.75C26.3787 15.75 25.318 15.75 24.6589 16.4091C24 17.068 24 18.1287 24 20.25Z" stroke="white" stroke-width="2" stroke-linecap="round" stroke-linejoin="round"/>
<path d="M6 24.75V12.75C6 9.21447 6 7.44669 7.09899 6.34835C8.198 5.25 9.96681 5.25 13.5044 5.25H24.0107C27.5483 5.25 29.3171 5.25 30.4161 6.34835C31.2521 7.1838 31.452 8.40656 31.5 10.5" stroke="white" stroke-width="2" stroke-linecap="round" stroke-linejoin="round"/>
<path d="M19.5 30.75H3.77369C3.19928 30.75 2.82569 30.1632 3.08258 29.6646L6 24.75H19.5" stroke="white" stroke-width="2" stroke-linecap="round" stroke-linejoin="round"/>
</svg>
