<svg width="36" height="36" viewBox="0 0 36 36" fill="none" xmlns="http://www.w3.org/2000/svg">
<path d="M6 24.7502C6 27.2354 8.01473 29.2502 10.5 29.2502C10.5 31.3213 12.1789 33.0002 14.25 33.0002C16.3211 33.0002 18 31.3213 18 29.2502C18 31.3213 19.679 33.0001 21.75 33.0001C23.8211 33.0001 25.5 31.3211 25.5 29.2501C27.9854 29.2501 30 27.2353 30 24.7501C30 23.897 29.7627 23.0995 29.3505 22.4198C31.4291 22.0222 33 20.1946 33 18.0001C33 15.8054 31.4291 13.9778 29.3505 13.5802C29.7627 12.9005 30 12.103 30 11.25C30 8.76471 27.9854 6.75 25.5 6.75C25.5 4.67892 23.8211 3 21.75 3C19.679 3 18 4.67907 18 6.75013C18 4.67907 16.3211 3.00014 14.25 3.00014C12.1789 3.00014 10.5 4.67907 10.5 6.75013C8.01473 6.75013 6 8.76486 6 11.2501C6 12.1031 6.23733 12.9007 6.64956 13.5804C4.57091 13.978 3 15.8056 3 18.0002C3 20.1947 4.57091 22.0223 6.64956 22.42C6.23733 23.0996 6 23.8972 6 24.7502Z" stroke="white" stroke-width="2" stroke-linecap="round" stroke-linejoin="round"/>
<path d="M11.25 21.75L14.0128 13.4615C14.1545 13.0366 14.5521 12.75 15 12.75C15.4479 12.75 15.8455 13.0366 15.9871 13.4615L18.75 21.75M23.25 12.75V21.75M12.75 18.75H17.25" stroke="white" stroke-width="2" stroke-linecap="round" stroke-linejoin="round"/>
</svg>
