<svg width="36" height="36" viewBox="0 0 36 36" fill="none" xmlns="http://www.w3.org/2000/svg">
<path d="M18.75 28.5V33" stroke="white" stroke-width="2" stroke-linecap="round" stroke-linejoin="round"/>
<path d="M15.75 33H21.75" stroke="white" stroke-width="2" stroke-linecap="round" stroke-linejoin="round"/>
<path d="M20.25 24C14.451 24 9.75 19.299 9.75 13.5C9.75 7.70101 14.451 3 20.25 3C26.049 3 30.75 7.70101 30.75 13.5C30.75 19.299 26.049 24 20.25 24Z" stroke="white" stroke-width="2" stroke-linecap="round"/>
<path d="M12.75 6C13.7315 6.05775 14.2385 6.53848 15.1102 7.45951C16.6846 9.12309 18.2591 9.2619 19.3086 8.70738C20.883 7.8756 19.56 6.52831 21.4079 5.79613C22.6122 5.31892 22.7802 4.02039 22.1098 3" stroke="white" stroke-width="2" stroke-linejoin="round"/>
<path d="M30 15C27.75 15 27.3507 16.8702 25.5 16.5C21.75 15.75 20.6874 16.5883 20.6874 18.3766C20.6874 20.1648 20.6874 20.1648 19.9075 21.506C19.4002 22.3784 19.2229 23.2506 20.2341 24" stroke="white" stroke-width="2" stroke-linejoin="round"/>
<path d="M9.75 3C6.97296 5.69993 5.25 9.4623 5.25 13.6238C5.25 21.8397 11.9657 28.5 20.25 28.5C24.3383 28.5 28.0443 26.8781 30.75 24.2475" stroke="white" stroke-width="2" stroke-linecap="round"/>
</svg>
