<svg width="36" height="36" viewBox="0 0 36 36" fill="none" xmlns="http://www.w3.org/2000/svg">
<path d="M15 18C15 18 15.75 18 16.5 19.5C16.5 19.5 18.8823 15.75 21 15" stroke="white" stroke-width="2" stroke-linecap="round" stroke-linejoin="round"/>
<path d="M25.5 17.25C25.5 21.3921 22.1421 24.75 18 24.75C13.8579 24.75 10.5 21.3921 10.5 17.25C10.5 13.1079 13.8579 9.75 18 9.75C22.1421 9.75 25.5 13.1079 25.5 17.25Z" stroke="white" stroke-width="2" stroke-linecap="round"/>
<path d="M31.5 16.775V12.4204C31.5 9.96044 31.5 8.73042 30.8938 7.92794C30.2877 7.12543 28.9172 6.73584 26.1761 5.95665C24.3033 5.4243 22.6524 4.78295 21.3334 4.19744C19.5351 3.39915 18.636 3 18 3C17.364 3 16.4649 3.39915 14.6666 4.19744C13.3476 4.78295 11.6968 5.42429 9.824 5.95665C7.0829 6.73584 5.71233 7.12543 5.10616 7.92794C4.5 8.73042 4.5 9.96044 4.5 12.4204V16.775C4.5 25.2128 12.0942 30.2753 15.891 32.2791C16.8016 32.7597 17.2569 33 18 33C18.7431 33 19.1984 32.7597 20.109 32.2791C23.9058 30.2753 31.5 25.2128 31.5 16.775Z" stroke="white" stroke-width="2" stroke-linecap="round"/>
</svg>
