<svg width="36" height="36" viewBox="0 0 36 36" fill="none" xmlns="http://www.w3.org/2000/svg">
<g clip-path="url(#clip0_2262_3428)">
<path d="M16.9034 14.467L26.6249 4.74555L31.2539 9.37455L21.5324 19.096C20.3129 20.3155 18.6599 20.9995 16.9364 20.9995H15.7499C15.3359 20.9995 14.9999 20.6635 14.9999 20.2495V19.063C14.9999 17.3395 15.6839 15.6865 16.9034 14.467ZM35.0414 0.958047C33.7634 -0.319953 31.6904 -0.319953 30.4124 0.958047L28.7459 2.62455L33.3749 7.25355L35.0414 5.58705C36.3194 4.30905 36.3194 2.23605 35.0414 0.958047ZM32.7329 24.007L31.9289 23.536C32.6129 21.82 33.0014 19.9555 33.0014 17.9995C33.0014 17.4205 32.9669 16.828 32.8994 16.24C32.7554 15.0055 31.6349 14.119 30.4049 14.2645C29.1704 14.4085 28.2854 15.5245 28.4294 16.759C28.4759 17.1655 28.5029 17.581 28.5029 17.9995C28.5029 23.788 23.7914 28.4995 18.0029 28.4995C12.2144 28.4995 7.5029 23.788 7.5029 17.9995C7.5029 12.211 12.2144 7.49955 18.0029 7.49955C18.4199 7.49955 18.8324 7.52355 19.2359 7.57155C20.4764 7.73805 21.5894 6.83805 21.7364 5.60355C21.8639 4.53705 21.2234 3.56205 20.2529 3.21855V2.24805C20.2529 1.00605 19.2449 -0.00195312 18.0029 -0.00195312C16.7609 -0.00195312 15.7529 1.00605 15.7529 2.24805V3.18555C11.9729 3.75855 8.6504 5.73255 6.3464 8.57655L5.5409 8.10555C4.4759 7.48305 3.0929 7.83855 2.4629 8.91255C1.8359 9.98505 2.1959 11.3635 3.2699 11.9905L4.0739 12.4615C3.3899 14.1775 3.0014 16.042 3.0014 17.998C3.0014 19.954 3.3884 21.82 4.0739 23.5345L3.2699 24.0055C2.1959 24.6325 1.8359 26.011 2.4629 27.0835C2.8814 27.8005 3.6344 28.198 4.4069 28.198C4.7939 28.198 5.1854 28.099 5.5409 27.8905L6.3464 27.4195C8.6504 30.2635 11.9729 32.2375 15.7529 32.8105V33.748C15.7529 34.99 16.7609 35.998 18.0029 35.998C19.2449 35.998 20.2529 34.99 20.2529 33.748V32.8105C24.0329 32.2375 27.3554 30.2635 29.6594 27.4195L30.4649 27.8905C30.8204 28.099 31.2119 28.198 31.5989 28.198C32.3714 28.198 33.1244 27.799 33.5429 27.0835C34.1699 26.011 33.8099 24.6325 32.7359 24.0055L32.7329 24.007Z" fill="#DD2C5C"/>
</g>
<defs>
<clipPath id="clip0_2262_3428">
<rect width="36" height="36" fill="white"/>
</clipPath>
</defs>
</svg>
