<svg width="36" height="36" viewBox="0 0 36 36" fill="none" xmlns="http://www.w3.org/2000/svg">
<g clip-path="url(#clip0_2262_3435)">
<path d="M24.7502 36C24.1968 35.9993 23.6631 35.7947 23.251 35.4253C22.839 35.0558 22.5775 34.5475 22.5167 33.9975C22.383 32.8945 21.8501 31.8785 21.0185 31.1416C20.1869 30.4047 19.1143 29.9978 18.0032 29.9978C16.8921 29.9978 15.8194 30.4047 14.9878 31.1416C14.1562 31.8785 13.6233 32.8945 13.4897 33.9975C13.424 34.5907 13.1254 35.1334 12.6596 35.5065C12.1938 35.8795 11.5988 36.0521 11.0057 35.9865C10.4125 35.9209 9.86973 35.6223 9.49672 35.1564C9.12371 34.6906 8.95103 34.0957 9.01667 33.5025C9.27183 31.2981 10.3284 29.2643 11.9853 27.7881C13.6423 26.3119 15.784 25.4962 18.0032 25.4962C20.2223 25.4962 22.3641 26.3119 24.021 27.7881C25.678 29.2643 26.7345 31.2981 26.9897 33.5025C27.0222 33.7962 26.9965 34.0934 26.9142 34.3772C26.8318 34.661 26.6944 34.9258 26.5097 35.1565C26.325 35.3871 26.0966 35.5792 25.8377 35.7216C25.5788 35.864 25.2944 35.954 25.0007 35.9865C24.9175 35.9955 24.8339 36 24.7502 36ZM34.0007 22.4865C34.2944 22.454 34.5788 22.364 34.8377 22.2216C35.0966 22.0792 35.325 21.8871 35.5097 21.6565C35.6944 21.4258 35.8318 21.161 35.9142 20.8772C35.9965 20.5934 36.0222 20.2962 35.9897 20.0025C35.8182 17.897 34.8884 15.9254 33.3731 14.4536C31.8577 12.9818 29.8597 12.11 27.7502 12C27.1534 12 26.5811 12.2371 26.1592 12.659C25.7372 13.081 25.5002 13.6533 25.5002 14.25C25.5002 14.8467 25.7372 15.419 26.1592 15.841C26.5811 16.263 27.1534 16.5 27.7502 16.5C28.7487 16.6141 29.6746 17.0782 30.3635 17.81C31.0524 18.5418 31.4599 19.4939 31.5137 20.4975C31.5746 21.048 31.8365 21.5568 32.2491 21.9263C32.6618 22.2958 33.1963 22.5 33.7502 22.5C33.8329 22.4999 33.9155 22.4954 33.9977 22.4865H34.0007ZM4.48667 20.4975C4.54043 19.4939 4.94792 18.5418 5.63685 17.81C6.32578 17.0782 7.25163 16.6141 8.25017 16.5C8.84691 16.5 9.4192 16.263 9.84116 15.841C10.2631 15.419 10.5002 14.8467 10.5002 14.25C10.5002 13.6533 10.2631 13.081 9.84116 12.659C9.4192 12.2371 8.84691 12 8.25017 12C6.14113 12.1107 4.14388 12.9828 2.62915 14.4545C1.11442 15.9262 0.185096 17.8975 0.013669 20.0025C-0.0188537 20.2962 0.00679652 20.5934 0.089155 20.8772C0.171513 21.161 0.308967 21.4258 0.493666 21.6565C0.678366 21.8871 0.906693 22.0792 1.16561 22.2216C1.42453 22.364 1.70896 22.454 2.00267 22.4865C2.08487 22.4954 2.16749 22.4999 2.25017 22.5C2.80408 22.5 3.33854 22.2958 3.7512 21.9263C4.16387 21.5568 4.42574 21.048 4.48667 20.4975ZM18.1157 24C19.154 24 20.1691 23.6921 21.0324 23.1152C21.8958 22.5383 22.5687 21.7184 22.966 20.7591C23.3634 19.7998 23.4674 18.7442 23.2648 17.7258C23.0622 16.7074 22.5622 15.7719 21.828 15.0377C21.0938 14.3035 20.1583 13.8035 19.1399 13.6009C18.1215 13.3983 17.0659 13.5023 16.1066 13.8996C15.1473 14.297 14.3273 14.9699 13.7505 15.8333C13.1736 16.6966 12.8657 17.7117 12.8657 18.75C12.8657 20.1424 13.4188 21.4777 14.4034 22.4623C15.3879 23.4469 16.7233 24 18.1157 24ZM27.1157 10.5C28.154 10.5 29.1691 10.1921 30.0324 9.61522C30.8958 9.03834 31.5687 8.2184 31.966 7.25909C32.3634 6.29978 32.4674 5.24418 32.2648 4.22578C32.0622 3.20738 31.5622 2.27192 30.828 1.53769C30.0938 0.803466 29.1583 0.303452 28.1399 0.10088C27.1215 -0.101693 26.0659 0.00227478 25.1066 0.399635C24.1473 0.796995 23.3273 1.4699 22.7505 2.33326C22.1736 3.19662 21.8657 4.21165 21.8657 5.25C21.8657 5.93944 22.0015 6.62213 22.2653 7.25909C22.5291 7.89605 22.9158 8.4748 23.4034 8.96231C23.8909 9.44982 24.4696 9.83653 25.1066 10.1004C25.7435 10.3642 26.4262 10.5 27.1157 10.5ZM9.11567 10.5C10.154 10.5 11.1691 10.1921 12.0324 9.61522C12.8958 9.03834 13.5687 8.2184 13.966 7.25909C14.3634 6.29978 14.4674 5.24418 14.2648 4.22578C14.0622 3.20738 13.5622 2.27192 12.828 1.53769C12.0938 0.803466 11.1583 0.303452 10.1399 0.10088C9.12149 -0.101693 8.06589 0.00227478 7.10658 0.399635C6.14727 0.796995 5.32733 1.4699 4.75045 2.33326C4.17358 3.19662 3.86567 4.21165 3.86567 5.25C3.86567 6.64239 4.41879 7.97775 5.40336 8.96231C5.89087 9.44982 6.46962 9.83653 7.10658 10.1004C7.74354 10.3642 8.42623 10.5 9.11567 10.5Z" fill="#DD2C5C"/>
</g>
<defs>
<clipPath id="clip0_2262_3435">
<rect width="36" height="36" fill="white"/>
</clipPath>
</defs>
</svg>
