<svg width="36" height="36" viewBox="0 0 36 36" fill="none" xmlns="http://www.w3.org/2000/svg">
<g clip-path="url(#clip0_2262_3442)">
<path d="M19.5 13.5H16.5C14.8455 13.5 13.5 14.8455 13.5 16.5V19.5C13.5 21.1545 14.8455 22.5 16.5 22.5H19.5C21.1545 22.5 22.5 21.1545 22.5 19.5V16.5C22.5 14.8455 21.1545 13.5 19.5 13.5ZM19.5 1.5H16.5C14.8455 1.5 13.5 2.8455 13.5 4.5V7.5C13.5 9.1545 14.8455 10.5 16.5 10.5H19.5C21.1545 10.5 22.5 9.1545 22.5 7.5V4.5C22.5 2.8455 21.1545 1.5 19.5 1.5ZM19.5 25.5H16.5C14.8455 25.5 13.5 26.8455 13.5 28.5V31.5C13.5 33.1545 14.8455 34.5 16.5 34.5H19.5C21.1545 34.5 22.5 33.1545 22.5 31.5V28.5C22.5 26.8455 21.1545 25.5 19.5 25.5ZM35.799 15.5805C35.52 16.062 35.0175 16.3305 34.4985 16.3305C34.2435 16.3305 33.9855 16.266 33.75 16.1295L32.61 15.471C31.551 16.6635 30.12 17.5185 28.5 17.8485V19.5C28.5 20.3295 27.8295 21 27 21C26.1705 21 25.5 20.3295 25.5 19.5V14.25C25.5 13.422 26.1705 12.75 27 12.75C28.2405 12.75 29.25 11.7405 29.25 10.5C29.25 9.2595 28.2405 8.25 27 8.25C26.1705 8.25 25.5 7.578 25.5 6.75V1.5C25.5 0.672 26.1705 0 27 0C27.8295 0 28.5 0.672 28.5 1.5V3.1515C30.12 3.4815 31.5525 4.3365 32.61 5.529L33.75 4.8705C34.4655 4.4565 35.3835 4.701 35.799 5.4195C36.213 6.138 35.967 7.0545 35.25 7.4685L34.1145 8.124C34.365 8.871 34.5 9.669 34.5 10.4985C34.5 11.328 34.3635 12.1275 34.1145 12.873L35.25 13.5285C35.9685 13.9425 36.2145 14.8605 35.799 15.5775V15.5805ZM11.121 27.879C12.291 29.0475 12.291 30.9525 11.121 32.121L8.4315 34.8105C8.139 35.103 7.755 35.25 7.371 35.25C6.987 35.25 6.603 35.103 6.3105 34.8105C5.724 34.224 5.724 33.276 6.3105 32.6895L7.5 31.5H5.25C2.355 31.5 0 29.145 0 26.25V21.75C0 18.855 2.355 16.5 5.25 16.5H9C9.828 16.5 10.5 17.172 10.5 18C10.5 18.828 9.828 19.5 9 19.5H5.25C4.0095 19.5 3 20.5095 3 21.75V26.25C3 27.4905 4.0095 28.5 5.25 28.5H7.5L6.3105 27.3105C5.724 26.724 5.724 25.776 6.3105 25.1895C6.897 24.603 7.845 24.603 8.4315 25.1895L11.121 27.879Z" fill="#DD2C5C"/>
</g>
<defs>
<clipPath id="clip0_2262_3442">
<rect width="36" height="36" fill="white"/>
</clipPath>
</defs>
</svg>
