<svg width="36" height="36" viewBox="0 0 36 36" fill="none" xmlns="http://www.w3.org/2000/svg">
<g clip-path="url(#clip0_2262_3449)">
<path d="M18 9.414V6.75C18 3.0285 14.9715 0 11.25 0C7.5285 0 4.5 3.0285 4.5 6.75V9.414C1.887 10.3455 0 12.8205 0 15.75V21.75C0 25.4715 3.0285 28.5 6.75 28.5H15.75C19.4715 28.5 22.5 25.4715 22.5 21.75V15.75C22.5 12.8205 20.613 10.347 18 9.414ZM12.75 19.5C12.75 20.328 12.078 21 11.25 21C10.422 21 9.75 20.328 9.75 19.5V18C9.75 17.172 10.422 16.5 11.25 16.5C12.078 16.5 12.75 17.172 12.75 18V19.5ZM15 9H7.5V6.75C7.5 4.683 9.183 3 11.25 3C13.317 3 15 4.683 15 6.75V9ZM25.5 10.5C25.5 9.672 26.172 9 27 9H29.25C30.4905 9 31.5 7.9905 31.5 6.75V5.5845C30.6075 5.0655 30 4.1085 30 3C30 1.3425 31.3425 0 33 0C34.6575 0 36 1.3425 36 3C36 4.107 35.3925 5.064 34.5 5.5845V6.75C34.5 9.645 32.145 12 29.25 12H27C26.172 12 25.5 11.328 25.5 10.5ZM36 33C36 34.6575 34.6575 36 33 36C31.3425 36 30 34.6575 30 33C30 31.893 30.6075 30.936 31.5 30.4155V29.25C31.5 28.0095 30.4905 27 29.25 27H27C26.172 27 25.5 26.328 25.5 25.5C25.5 24.672 26.172 24 27 24H29.25C32.145 24 34.5 26.355 34.5 29.25V30.4155C35.3925 30.9345 36 31.8915 36 33ZM36 18C36 19.6575 34.6575 21 33 21C31.893 21 30.936 20.3925 30.4155 19.5H27C26.172 19.5 25.5 18.828 25.5 18C25.5 17.172 26.172 16.5 27 16.5H30.4155C30.9345 15.6075 31.8915 15 33 15C34.6575 15 36 16.3425 36 18Z" fill="#DD2C5C"/>
</g>
<defs>
<clipPath id="clip0_2262_3449">
<rect width="36" height="36" fill="white"/>
</clipPath>
</defs>
</svg>
