<svg width="36" height="36" viewBox="0 0 36 36" fill="none" xmlns="http://www.w3.org/2000/svg">
<g clip-path="url(#clip0_2262_3456)">
<path d="M0 15.7499C0 14.5064 1.008 13.4999 2.25 13.4999H9.75C10.992 13.4999 12 14.5064 12 15.7499C12 16.9934 10.992 17.9999 9.75 17.9999H2.25C1.008 17.9999 0 16.9934 0 15.7499ZM6.75 20.9999H2.25C1.008 20.9999 0 22.0079 0 23.2499C0 24.4919 1.008 25.4999 2.25 25.4999H6.75C7.992 25.4999 9 24.4919 9 23.2499C9 22.0079 7.992 20.9999 6.75 20.9999ZM3.75 28.4999H2.25C1.008 28.4999 0 29.5079 0 30.7499C0 31.9919 1.008 32.9999 2.25 32.9999H3.75C4.992 32.9999 6 31.9919 6 30.7499C6 29.5079 4.992 28.4999 3.75 28.4999ZM23.25 25.4999C24.492 25.4999 25.5 24.4919 25.5 23.2499C25.5 22.0079 24.492 20.9999 23.25 20.9999H20.25C19.008 20.9999 18 22.0079 18 23.2499C18 24.4919 19.008 25.4999 20.25 25.4999H23.25ZM35.9235 10.0619L33.6585 25.9169C33.0915 29.8889 29.352 33.0014 25.146 33.0014H11.25C10.008 33.0014 9 31.9934 9 30.7514C9 29.5094 10.008 28.5014 11.25 28.5014H25.1475C27.0975 28.5014 28.9545 27.0269 29.2035 25.2824L30.8865 13.5014H25.5705C24.786 16.1174 22.3545 18.0014 19.5585 18.0014C17.7345 18.0014 16.0035 17.2109 14.8095 15.8339C13.614 14.4569 13.077 12.6299 13.3335 10.8239L14.022 6.00138H12.3975C10.6965 6.00138 9.2055 7.14888 8.772 8.79138C8.454 9.99438 7.2315 10.7144 6.0225 10.3919C4.821 10.0754 4.104 8.84388 4.422 7.64238C5.373 4.02588 8.6535 1.49988 12.396 1.49988H28.4985C32.9295 1.39638 36.654 5.68788 35.9235 10.0619ZM28.4985 5.99988H26.727L26.298 8.99988H31.4835C31.5345 7.39338 30.1125 5.95788 28.4985 5.99988ZM21.3285 11.9654L22.1805 5.99988H18.5685L17.7885 11.4584C17.688 12.1604 18.0075 12.6524 18.207 12.8834C18.408 13.1144 18.849 13.4999 19.557 13.4999C20.442 13.4999 21.204 12.8399 21.3285 11.9654Z" fill="#DD2C5C"/>
</g>
<defs>
<clipPath id="clip0_2262_3456">
<rect width="36" height="36" fill="white"/>
</clipPath>
</defs>
</svg>
