<svg width="36" height="36" viewBox="0 0 36 36" fill="none" xmlns="http://www.w3.org/2000/svg">
<g clip-path="url(#clip0_2262_3463)">
<path d="M34.9066 25.8491C34.9066 25.8491 30.1081 21.238 30.0931 21.2245C29.9731 20.602 29.8441 19.906 30.5131 19.504C31.9996 18.556 32.9866 16.7995 32.9611 15.0085C32.9866 13.201 32.0056 11.4535 30.5116 10.498C30.1096 10.2385 29.9041 9.77805 30.0016 9.35055C30.2026 8.46105 30.1726 7.55055 29.9116 6.64305C29.4181 4.92105 28.0411 3.54555 26.3206 3.05205C25.4131 2.79105 24.5026 2.76105 23.6146 2.96355C23.1871 3.05955 22.7281 2.85555 22.4686 2.45355C21.9871 1.70505 21.3316 1.09905 20.5231 0.650547C18.9571 -0.219453 17.0101 -0.219453 15.4426 0.650547C14.6341 1.09905 13.9801 1.70505 13.4986 2.45205C13.2391 2.85555 12.7831 3.06105 12.3511 2.96355C11.4646 2.76105 10.5541 2.79255 9.6466 3.05205C7.9246 3.54555 6.5476 4.92255 6.0556 6.64305C5.7946 7.55205 5.7646 8.46255 5.9656 9.35055C6.0616 9.77655 5.8576 10.237 5.4541 10.498C3.9661 11.4475 2.9791 13.2025 3.0046 14.9935C2.9791 16.8025 3.9601 18.547 5.4556 19.504C6.1336 19.912 5.9866 20.6185 5.8696 21.2485C5.8666 21.2515 1.0936 25.8491 1.0936 25.8491C0.0855984 26.8211 -0.256402 28.2475 0.199598 29.5705C0.657098 30.8935 1.8046 31.8041 3.1966 31.9481L4.3126 32.0635L4.4341 32.9321C4.6201 34.2701 5.5291 35.3711 6.8071 35.8076C8.0656 36.2411 9.4756 35.9351 10.4386 34.9901L16.0201 29.581C16.6516 29.8361 17.3116 30.0041 17.9851 30.0041C18.6676 30.0041 19.3351 29.833 19.9726 29.5705L25.5586 34.9841C26.5261 35.9336 27.9331 36.2411 29.1946 35.8076C30.4726 35.3711 31.3816 34.2701 31.5691 32.9321L31.6891 32.065L32.8051 31.9496C34.1971 31.8055 35.3461 30.8951 35.8021 29.5721C36.2581 28.2491 35.9161 26.8225 34.9081 25.8505L34.9066 25.8491ZM8.3446 32.8391C7.9621 33.1721 7.4701 33.0355 7.4041 32.5181L7.1221 30.487C7.0276 29.803 6.4771 29.272 5.7901 29.2015L3.5041 28.9646C2.9596 28.9165 2.8231 28.3301 3.1741 28.0091L6.6466 24.6611C7.3261 25.7516 8.3896 26.59 9.6451 26.9501C10.5526 27.2095 11.4646 27.241 12.3511 27.0385C12.8701 26.9021 13.3411 27.2756 13.6336 27.7121L8.3431 32.8391H8.3446ZM16.8976 26.7281C16.5271 26.5226 16.2316 26.2511 16.0201 25.9226C15.2431 24.7211 13.9246 24.0161 12.5611 24.0161C11.8531 24.0131 11.1946 24.3191 10.4746 24.0671C9.7501 23.8601 9.1471 23.257 8.9401 22.5325C8.8201 22.1155 8.8051 21.706 8.8936 21.316C9.2671 19.666 8.5411 17.926 7.0861 16.9855C6.4366 16.564 5.9926 15.8125 6.0076 14.995C5.9926 14.1955 6.4426 13.4335 7.0846 13.0195C8.5426 12.079 9.2686 10.339 8.8936 8.68755C8.8051 8.29755 8.8216 7.88955 8.9416 7.47105C9.1486 6.74655 9.7501 6.14505 10.4761 5.93805C10.8931 5.81955 11.3026 5.80305 11.6911 5.89005C13.3381 6.26655 15.0826 5.54055 16.0231 4.08105C16.2346 3.75255 16.5301 3.48255 16.9006 3.27555C17.5591 2.91105 18.4126 2.91105 19.0726 3.27555C19.4446 3.48255 19.7401 3.75255 19.9516 4.08105C20.8921 5.53905 22.6336 6.26355 24.2821 5.89005C24.6736 5.80305 25.0816 5.81805 25.4971 5.93805C26.2216 6.14505 26.8246 6.74805 27.0331 7.47255C27.1531 7.88955 27.1681 8.29905 27.0796 8.68755C26.7046 10.3375 27.4306 12.079 28.8871 13.018C29.5351 13.4395 29.9791 14.191 29.9641 15.0085C29.9791 15.808 29.5291 16.57 28.8886 16.984C27.4306 17.9245 26.7031 19.6645 27.0781 21.3145C27.1666 21.706 27.1516 22.1155 27.0316 22.531C26.8231 23.2555 26.2216 23.8585 25.4956 24.0655C25.0831 24.1855 24.6736 24.2036 24.2821 24.1136C22.6351 23.7386 20.8921 24.4661 19.9501 25.9226C19.7386 26.2511 19.4431 26.5211 19.0711 26.7281C18.4126 27.0926 17.5576 27.0926 16.8976 26.7281ZM32.4961 28.9646L30.2101 29.2015C29.5231 29.272 28.9741 29.803 28.8781 30.487L28.5976 32.5181C28.5091 33.022 28.0171 33.181 27.6511 32.8345L22.3471 27.694C22.6366 27.2605 23.1031 26.9035 23.6161 27.0385C24.5041 27.241 25.4131 27.2095 26.3206 26.9501C27.5851 26.5885 28.6561 25.744 29.3341 24.643L32.8261 28.0091C33.0496 28.2251 33.1366 28.8656 32.4961 28.9646ZM24.5236 17.593L25.4551 13.8655C25.7026 12.265 24.5731 10.513 22.5001 10.501H18.8566L19.4371 8.69355C19.5001 8.32005 19.4686 8.11305 19.4446 8.02305C19.2346 7.25055 18.6046 6.75105 17.8411 6.75105C17.1916 6.75705 16.7731 7.09605 16.3606 7.70355L14.1421 10.4995H13.5016C11.8471 10.4995 10.5016 11.845 10.5016 13.4995V17.9995C10.5016 19.654 11.8471 20.9995 13.5016 20.9995H20.1586C22.2271 20.9995 24.0226 19.5985 24.5236 17.593ZM21.6136 16.8655C21.4471 17.5345 20.8486 18.0025 20.1586 18.0025H16.5016V13.5025H22.4551L21.6136 16.8655Z" fill="#DD2C5C"/>
</g>
<defs>
<clipPath id="clip0_2262_3463">
<rect width="36" height="36" fill="white"/>
</clipPath>
</defs>
</svg>
