<svg width="242" height="37" viewBox="0 0 242 37" fill="none" xmlns="http://www.w3.org/2000/svg">
<g clip-path="url(#clip0_2273_10495)">
<path d="M240.155 23.637C225.365 19.5072 209.241 17.2148 193.469 15.3011C177.555 13.3682 161.474 12.0747 145.379 11.4503C113.302 10.2067 81.2244 11.5411 50.1805 15.5007C41.4977 16.6072 32.9242 17.9854 24.4644 19.5351C20.3699 20.2846 16.344 21.0927 12.3946 22.0628C8.13986 23.1072 4.14925 24.3373 0.0738791 25.5862C-0.0537592 25.6257 0.0199174 25.7574 0.167681 25.7365C7.64813 24.5978 15.1809 23.6 22.6082 22.338C30.1836 21.0501 37.8481 19.9223 45.5766 18.9536C60.9578 17.0253 76.4756 15.5966 92.2276 14.8257C123.58 13.2895 155.406 14.1591 186.764 17.5502C204.528 19.4694 221.824 22.6411 239.423 25.0638C241.011 25.2823 241.671 24.0612 240.159 23.6372L240.155 23.637Z" fill="#FFCC00"/>
<path d="M20.3227 16.3585C26.0662 16.0569 31.7304 15.009 37.3142 14.2545C42.7249 13.5248 48.1425 12.8256 53.6025 12.2114C64.7836 10.9548 75.9942 9.88076 87.3701 9.22967C109.945 7.93707 132.742 8.03928 155.514 9.32365C168.475 10.0542 181.411 11.2467 194.259 12.6972C195.311 12.8157 195.607 11.7517 194.561 11.5906C149.332 4.52968 101.619 4.36689 56.7916 9.51974C50.4751 10.2458 44.2047 11.1553 38.0335 12.1901C32.0313 13.1974 25.5215 14.2067 20.1508 16.0813C19.9079 16.1658 20.0537 16.3714 20.327 16.3562L20.3227 16.3585Z" fill="#FFCC00"/>
</g>
<defs>
<clipPath id="clip0_2273_10495">
<rect width="240.693" height="25.7613" fill="white" transform="translate(1.17578) rotate(2.61531)"/>
</clipPath>
</defs>
</svg>
