<svg width="36" height="36" viewBox="0 0 36 36" fill="none" xmlns="http://www.w3.org/2000/svg">
<g clip-path="url(#clip0_2212_2807)">
<path d="M28.4999 1.5H23.9999C23.1704 1.5 22.4999 2.172 22.4999 3C22.4999 3.828 23.1704 4.5 23.9999 4.5H28.4999C30.9809 4.5 32.9999 6.519 32.9999 9V19.5H2.9999V9.033C2.9999 7.827 3.4709 6.693 4.3274 5.8425C5.1764 4.998 6.3029 4.533 7.4999 4.533H7.5254L11.9924 4.5585H12.0014C12.8264 4.5585 13.4969 3.8925 13.5014 3.066C13.5059 2.238 12.8384 1.563 12.0104 1.5585L7.5434 1.533H7.5014C5.5049 1.533 3.6284 2.307 2.2139 3.7155C0.787404 5.133 0.00140381 7.0215 0.00140381 9.033V21C0.00140381 25.1355 3.3659 28.5 7.5014 28.5H16.5014V31.5H10.5014C9.6719 31.5 9.0014 32.172 9.0014 33C9.0014 33.828 9.6719 34.5 10.5014 34.5H25.5014C26.3309 34.5 27.0014 33.828 27.0014 33C27.0014 32.172 26.3309 31.5 25.5014 31.5H19.5014V28.5H28.5014C32.6369 28.5 36.0014 25.1355 36.0014 21V9C36.0014 4.8645 32.6354 1.5 28.4999 1.5ZM28.4999 25.5H7.4999C5.5469 25.5 3.8969 24.2415 3.2759 22.5H32.7224C32.1014 24.2415 30.4529 25.5 28.4999 25.5ZM16.4999 12.63V1.5C16.4999 0.672 17.1704 0 17.9999 0C18.8294 0 19.4999 0.672 19.4999 1.5V12.6315L22.9784 9.4005C23.5829 8.838 24.5354 8.8695 25.0979 9.48C25.6619 10.0875 25.6274 11.0355 25.0199 11.5995L21.1004 15.2385C20.2589 16.08 19.1384 16.503 18.0134 16.503C16.8734 16.503 15.7289 16.0695 14.8574 15.1995L10.9769 11.5995C10.3709 11.0355 10.3349 10.0875 10.8989 9.48C11.4599 8.871 12.4124 8.838 13.0184 9.4005L16.4969 12.63H16.4999Z" fill="#DD2C5C"/>
</g>
<defs>
<clipPath id="clip0_2212_2807">
<rect width="36" height="36" fill="white"/>
</clipPath>
</defs>
</svg>
