<svg width="36" height="36" viewBox="0 0 36 36" fill="none" xmlns="http://www.w3.org/2000/svg">
<g clip-path="url(#clip0_2212_2824)">
<path d="M32.916 17.0647L29.1645 15.8212C28.254 15.5197 27.2475 15.5197 26.3325 15.8212L22.5825 17.0647C20.739 17.6752 19.4985 19.3927 19.4985 21.3367V26.1487C19.5825 29.9467 22.128 33.1507 27.069 35.6692C27.459 35.8687 27.9165 35.8867 28.32 35.7202C33.3285 33.6577 35.9115 30.4372 35.9985 26.1157V21.3352C35.9985 19.3912 34.7595 17.6752 32.9145 17.0632L32.916 17.0647ZM33 26.0857C32.943 28.9447 31.245 31.1032 27.8145 32.6707C24.294 30.7462 22.554 28.5877 22.5 26.1157V21.3352C22.5 20.6872 22.9125 20.1157 23.5275 19.9117L27.276 18.6682C27.5805 18.5677 27.9165 18.5677 28.221 18.6682L31.971 19.9117C32.586 20.1157 32.9985 20.6872 32.9985 21.3352L33 26.0857ZM19.4565 34.7122C19.5825 34.2322 19.317 33.7327 19.0005 33.3817C18.948 33.3352 15.438 30.1372 13.1595 25.4992H15C15.828 25.4992 16.5 24.8272 16.5 23.9992C16.5 23.1712 15.828 22.4992 15 22.4992H11.955C11.5185 21.0712 11.25 19.5592 11.25 17.9992C11.25 16.4392 11.52 14.9287 11.958 13.4992H25.116C25.116 13.4992 25.119 13.4992 25.1205 13.4992H25.125H32.301C32.3445 13.6357 32.3955 13.7692 32.4345 13.9072C32.658 14.7112 33.51 15.1687 34.2855 14.9422C35.0835 14.7172 35.547 13.8877 35.3205 13.0912C33.1515 5.41119 26.0715 0.042693 18.0885 0.00219295C8.1435 -0.0488071 -0.00599669 8.04069 3.31097e-06 17.9992C3.31097e-06 27.9232 8.0745 35.9992 17.9985 35.9992C18.717 36.0022 19.389 35.4277 19.4565 34.7122ZM8.8545 22.4992H3.6915C3.243 21.0772 3 19.5667 3 17.9992C3 16.4317 3.243 14.9212 3.6915 13.4992H8.8545C8.4855 14.9332 8.25 16.4362 8.25 17.9992C8.25 19.5622 8.4855 21.0652 8.8545 22.4992ZM18.003 3.61869C19.224 4.91019 21.3105 7.36869 22.8465 10.4992H13.167C14.7045 7.37469 16.785 4.91169 18.003 3.61869ZM30.9915 10.4992H26.1375C24.9525 7.67769 23.316 5.28069 21.906 3.52869C25.722 4.56519 29.0085 7.07769 30.993 10.4992H30.9915ZM14.0835 3.53619C12.6735 5.28669 11.0475 7.68669 9.867 10.4992H5.0295C6.9915 7.11969 10.2285 4.58169 14.0835 3.53619ZM5.0295 25.4992H9.867C11.0475 28.3117 12.672 30.7117 14.0835 32.4622C10.2285 31.4167 6.9915 28.8787 5.0295 25.4992Z" fill="#DD2C5C"/>
</g>
<defs>
<clipPath id="clip0_2212_2824">
<rect width="36" height="36" fill="white"/>
</clipPath>
</defs>
</svg>
