<svg width="36" height="36" viewBox="0 0 36 36" fill="none" xmlns="http://www.w3.org/2000/svg">
<g clip-path="url(#clip0_2212_2831)">
<path d="M27 12.7504C27 13.745 26.6049 14.6988 25.9017 15.4021C25.1984 16.1053 24.2446 16.5004 23.25 16.5004C22.2555 16.5004 21.3016 16.1053 20.5984 15.4021C19.8951 14.6988 19.5 13.745 19.5 12.7504C19.5 11.7558 19.8951 10.802 20.5984 10.0988C21.3016 9.3955 22.2555 9.00041 23.25 9.00041C24.2446 9.00041 25.1984 9.3955 25.9017 10.0988C26.6049 10.802 27 11.7558 27 12.7504ZM26.991 23.0494C26.9086 25.4327 26.3136 27.7703 25.2465 29.9029C24.2633 31.7623 22.787 33.3149 20.9795 34.3905C19.172 35.4661 17.1032 36.0231 15 36.0004H13.5V27.7504C13.4933 26.3601 12.938 25.0286 11.9549 24.0455C10.9718 23.0624 9.64035 22.5071 8.25003 22.5004H2.63751e-05V21.0004C-0.0226811 18.8972 0.534317 16.8284 1.60992 15.0209C2.68552 13.2134 4.23816 11.7371 6.09753 10.7539C8.23018 9.68681 10.5677 9.0918 12.951 9.00941C15.1363 6.18677 17.9427 3.90571 21.1523 2.3433C24.3619 0.780901 27.8884 -0.0208094 31.458 0.000410514C32.052 -0.00334281 32.6409 0.110185 33.1909 0.334484C33.7409 0.558784 34.2413 0.889443 34.6632 1.3075C35.0852 1.72556 35.4205 2.2228 35.6499 2.77071C35.8793 3.31862 35.9983 3.90642 36 4.50041C36.0254 8.07673 35.2258 11.6107 33.6634 14.8278C32.1009 18.0448 29.8176 20.8583 26.991 23.0494ZM3.12603 19.5004H6.51903C7.63299 17.0194 8.94158 14.6304 10.4325 12.3559C9.39695 12.5968 8.39348 12.9594 7.44303 13.4359C6.29993 14.0395 5.31408 14.9024 4.56443 15.9556C3.81477 17.0087 3.32216 18.2227 3.12603 19.5004ZM23.6445 25.5679C21.37 27.0589 18.981 28.3674 16.5 29.4814V32.8744C17.7777 32.6783 18.9918 32.1857 20.0449 31.436C21.098 30.6864 21.9609 29.7005 22.5645 28.5574C23.0411 27.607 23.4036 26.6035 23.6445 25.5679ZM33 4.45841C32.9891 4.06791 32.8262 3.69708 32.5461 3.4248C32.266 3.15251 31.8907 3.00026 31.5 3.00041C23.76 3.22091 18.525 6.18641 13.473 13.2334C12.0632 15.2632 10.8235 17.406 9.76653 19.6399C11.4044 19.945 12.9116 20.7387 14.0896 21.9168C15.2677 23.0949 16.0615 24.602 16.3665 26.2399C18.6004 25.1829 20.7432 23.9432 22.773 22.5334C29.814 17.4754 32.7795 12.2404 33 4.45841ZM9.18303 26.8189C10.0212 27.6657 10.4913 28.809 10.4913 30.0004C10.4913 31.1918 10.0212 32.3351 9.18303 33.1819C7.82253 34.5409 3.75003 35.3794 2.06103 35.6779L-0.0479736 36.0484L0.322526 33.9394C0.622526 32.2504 1.45953 28.1779 2.81853 26.8174C3.67615 25.9994 4.8159 25.5432 6.00108 25.5434C7.18626 25.5437 8.32579 26.0005 9.18303 26.8189ZM7.50003 30.0004C7.50056 29.8034 7.46199 29.6082 7.38655 29.4261C7.31111 29.2441 7.20029 29.0788 7.06053 28.9399C6.77924 28.6587 6.39777 28.5007 6.00003 28.5007C5.60228 28.5007 5.22082 28.6587 4.93953 28.9399C4.36764 29.9723 3.96598 31.0901 3.75003 32.2504C4.91074 32.0335 6.02901 31.6314 7.06203 31.0594C7.20134 30.9206 7.31177 30.7555 7.38695 30.5737C7.46213 30.392 7.50056 30.1971 7.50003 30.0004Z" fill="#DD2C5C"/>
</g>
<defs>
<clipPath id="clip0_2212_2831">
<rect width="36" height="36" fill="white"/>
</clipPath>
</defs>
</svg>
