<svg width="18" height="18" viewBox="0 0 18 18" fill="none" xmlns="http://www.w3.org/2000/svg">
<path d="M3.75 6C3.7578 4.01671 3.83101 2.95576 4.51792 2.26885C5.28676 1.5 6.5242 1.5 8.9991 1.5C11.474 1.5 12.7114 1.5 13.4802 2.26885C14.1671 2.95576 14.2403 4.01671 14.2481 6M3.75 12C3.7578 13.9833 3.83101 15.0442 4.51792 15.7312C5.28676 16.5 6.5242 16.5 8.9991 16.5C11.474 16.5 12.7114 16.5 13.4802 15.7312C14.1671 15.0442 14.2403 13.9833 14.2481 12" stroke="#24262D" stroke-width="1.3" stroke-linecap="round"/>
<path d="M8.25 14.25H9.75" stroke="#24262D" stroke-width="1.3" stroke-linecap="round" stroke-linejoin="round"/>
<path d="M12 7.5L12.9199 8.2929C13.3066 8.6262 13.5 8.79292 13.5 9C13.5 9.20707 13.3066 9.3738 12.9199 9.7071L12 10.5" stroke="#24262D" stroke-width="1.3" stroke-linecap="round" stroke-linejoin="round"/>
<path d="M6 7.5L5.08009 8.2929C4.69336 8.6262 4.5 8.79292 4.5 9C4.5 9.20707 4.69336 9.3738 5.08009 9.7071L6 10.5" stroke="#24262D" stroke-width="1.3" stroke-linecap="round" stroke-linejoin="round"/>
<path d="M9.75 6.75L8.25 11.25" stroke="#24262D" stroke-width="1.3" stroke-linecap="round" stroke-linejoin="round"/>
</svg>
