<svg width="18" height="18" viewBox="0 0 18 18" fill="none" xmlns="http://www.w3.org/2000/svg">
<path d="M12.75 11.2497C12.75 13.7247 12.75 14.9622 12.0361 15.7311C11.3221 16.5 10.1731 16.5 7.875 16.5C5.5769 16.5 4.42786 16.5 3.71392 15.7311C3 14.9622 3 13.7247 3 11.2497V6.74939C3 4.27437 3 3.03685 3.71392 2.26796C4.35177 1.58101 5.33694 1.5078 7.17857 1.5" stroke="#24262D" stroke-width="1.3" stroke-linecap="round"/>
<path d="M12 3H10.5C9.7929 3 9.43935 3 9.21968 3.21967C9 3.43934 9 3.79289 9 4.5V6C9 6.70711 9 7.06066 9.21968 7.28033C9.43935 7.5 9.7929 7.5 10.5 7.5H12C12.7071 7.5 13.0606 7.5 13.2803 7.28033C13.5 7.06066 13.5 6.70711 13.5 6V4.5C13.5 3.79289 13.5 3.43934 13.2803 3.21967C13.0606 3 12.7071 3 12 3Z" stroke="#24262D" stroke-width="1.3" stroke-linecap="round" stroke-linejoin="round"/>
<path d="M10.125 7.5V9M12.375 7.5V9M10.125 1.5V3M12.375 1.5V3M9 4.125H7.5M9 6.375H7.5M15 4.125H13.5M15 6.375H13.5" stroke="#24262D" stroke-width="1.3" stroke-linecap="round" stroke-linejoin="round"/>
<path d="M7.86719 14.25H7.87619" stroke="#24262D" stroke-width="1.3" stroke-linecap="round" stroke-linejoin="round"/>
</svg>
