<svg width="30" height="30" viewBox="0 0 30 30" fill="none" xmlns="http://www.w3.org/2000/svg">
<g clip-path="url(#clip0_2262_4982)">
<path d="M4.99998 0H8.74998C11.5114 0 13.75 2.23857 13.75 4.99998V8.74998C13.75 11.5114 11.5114 13.75 8.74998 13.75H4.99998C2.23857 13.75 0 11.5114 0 8.74998V4.99998C0 2.23857 2.23857 0 4.99998 0Z" fill="url(#paint0_linear_2262_4982)"/>
<path d="M4.99998 16.25H8.74998C11.5114 16.25 13.75 18.4886 13.75 21.25V25C13.75 27.7614 11.5114 30 8.74998 30H4.99998C2.23857 30 0 27.7614 0 25V21.25C0 18.4886 2.23857 16.25 4.99998 16.25Z" fill="url(#paint1_linear_2262_4982)"/>
<path d="M21.25 16.25H25C27.7614 16.25 30 18.4886 30 21.25V25C30 27.7614 27.7614 30 25 30H21.25C18.4886 30 16.25 27.7614 16.25 25V21.25C16.2499 18.4886 18.4885 16.25 21.25 16.25Z" fill="url(#paint2_linear_2262_4982)"/>
<path d="M17.5 8.74994H21.25V12.4999C21.25 13.1903 21.8096 13.7499 22.5 13.7499C23.1903 13.7499 23.7499 13.1903 23.7499 12.4999V8.74994H27.4999C28.1903 8.74994 28.7499 8.19031 28.7499 7.49996C28.7499 6.80961 28.1903 6.24998 27.4999 6.24998H23.7499V2.49998C23.7499 1.80963 23.1903 1.25 22.5 1.25C21.8096 1.25 21.25 1.80963 21.25 2.49998V6.24998H17.5C16.8096 6.24998 16.25 6.80961 16.25 7.49996C16.25 8.19031 16.8096 8.74994 17.5 8.74994Z" fill="url(#paint3_linear_2262_4982)"/>
</g>
<defs>
<linearGradient id="paint0_linear_2262_4982" x1="2.07723" y1="-0.663018" x2="4.48536" y2="17.7949" gradientUnits="userSpaceOnUse">
<stop stop-color="#D63384"/>
<stop offset="1" stop-color="#DC3545"/>
</linearGradient>
<linearGradient id="paint1_linear_2262_4982" x1="2.07723" y1="15.587" x2="4.48536" y2="34.0449" gradientUnits="userSpaceOnUse">
<stop stop-color="#D63384"/>
<stop offset="1" stop-color="#DC3545"/>
</linearGradient>
<linearGradient id="paint2_linear_2262_4982" x1="18.3272" y1="15.587" x2="20.7354" y2="34.045" gradientUnits="userSpaceOnUse">
<stop stop-color="#D63384"/>
<stop offset="1" stop-color="#DC3545"/>
</linearGradient>
<linearGradient id="paint3_linear_2262_4982" x1="18.1384" y1="0.647258" x2="20.3276" y2="17.4271" gradientUnits="userSpaceOnUse">
<stop stop-color="#D63384"/>
<stop offset="1" stop-color="#DC3545"/>
</linearGradient>
<clipPath id="clip0_2262_4982">
<rect width="30" height="30" fill="white"/>
</clipPath>
</defs>
</svg>
