<svg width="30" height="30" viewBox="0 0 30 30" fill="none" xmlns="http://www.w3.org/2000/svg">
<path d="M20.9113 22.2888C21.6438 23.0213 21.6438 24.2088 20.9113 24.94C20.1788 25.6725 18.9913 25.6725 18.26 24.94L12.4675 19.1475C11.9788 18.6588 11.1875 18.6588 10.7 19.1475C10.2113 19.6363 10.2113 20.4275 10.7 20.915L15.9638 26.1788C16.6963 26.9113 16.6963 28.0988 15.9638 28.83C15.2313 29.5625 14.0438 29.5625 13.3125 28.83L7.47125 22.9888C3.77625 19.3838 0 14.5775 0 10C0 5.175 3.645 1.25 8.125 1.25C10.3413 1.25 12.0388 2.0775 13.3313 2.99625L8.7825 7.50625C7.955 8.3325 7.5 9.4325 7.5 10.6013C7.5 11.77 7.955 12.8688 8.78 13.6938C9.60625 14.5213 10.705 14.9763 11.875 14.9763C12.4075 14.9763 12.9213 14.87 13.4063 14.69L20.9125 22.29L20.9113 22.2888ZM18.0263 10.6562L15.4113 13.2538L23.0488 20.7763C23.7813 21.5088 24.9688 21.5088 25.7 20.7763C26.82 19.6563 25.8613 18.4163 25.8613 18.4163L18.0263 10.6562ZM21.8213 1.3225C19.7788 1.335 17.8388 2.2225 16.3438 3.615L10.5475 9.3725C9.815 10.105 9.815 11.2925 10.5475 12.0238C11.28 12.7563 12.4675 12.7563 13.1988 12.0238L16.32 8.92375C17.295 7.955 18.8675 7.955 19.8438 8.92375L27.7488 16.7713C29.2375 14.3688 29.9975 12.1188 29.9975 10.0725C29.9975 5.2475 26.3 1.3225 21.82 1.3225H21.8213Z" fill="url(#paint0_linear_2262_4993)"/>
<defs>
<linearGradient id="paint0_linear_2262_4993" x1="4.53178" y1="-0.106388" x2="9.16083" y2="37.7309" gradientUnits="userSpaceOnUse">
<stop stop-color="#D63384"/>
<stop offset="1" stop-color="#DC3545"/>
</linearGradient>
</defs>
</svg>
