<svg width="30" height="30" viewBox="0 0 30 30" fill="none" xmlns="http://www.w3.org/2000/svg">
<path d="M26.6222 17.3557L26.0584 17.032C26.1859 16.3532 26.2497 15.672 26.2497 14.9995C26.2497 14.327 26.1847 13.6457 26.0584 12.967L26.6209 12.6432C27.4897 12.1445 28.1122 11.3357 28.3722 10.3695C28.6334 9.4032 28.5022 8.3907 28.0034 7.52445C27.5047 6.6557 26.6959 6.0332 25.7297 5.7732C24.7609 5.51195 23.7509 5.6432 22.8847 6.14195L22.3222 6.4657C21.2697 5.5657 20.0584 4.86695 18.7509 4.40445V3.75195C18.7509 1.68445 17.0684 0.00195312 15.0009 0.00195312C12.9334 0.00195312 11.2509 1.68445 11.2509 3.75195V4.40445C9.94217 4.86695 8.73093 5.5657 7.67967 6.4657L7.11717 6.14195C6.25092 5.6457 5.23967 5.5132 4.27092 5.7732C3.30467 6.0332 2.49717 6.6557 1.99842 7.5232C1.49842 8.3907 1.36717 9.40195 1.62842 10.3695C1.88842 11.3357 2.51092 12.1432 3.37967 12.6432L3.94342 12.9682C3.81592 13.6482 3.75217 14.3282 3.75217 14.9995C3.75217 15.6707 3.81592 16.3507 3.94342 17.0307L3.37967 17.3557C2.51092 17.8557 1.88967 18.6632 1.62842 19.6295C1.36717 20.597 1.49842 21.6082 1.99717 22.4745C2.49592 23.3432 3.30342 23.9657 4.27092 24.2257C5.23467 24.4857 6.24842 24.3557 7.11717 23.857L7.67967 23.5332C8.73093 24.4345 9.94217 25.132 11.2509 25.5945V26.247C11.2509 28.3145 12.9334 29.997 15.0009 29.997C17.0684 29.997 18.7509 28.3145 18.7509 26.247V25.5945C20.0597 25.132 21.2709 24.432 22.3222 23.5332L22.8834 23.857C23.7522 24.3545 24.7647 24.4857 25.7297 24.2257C26.6959 23.9657 27.5047 23.3432 28.0034 22.4757C28.5022 21.6082 28.6334 20.5957 28.3722 19.6295C28.1122 18.6632 27.4897 17.8545 26.6222 17.3557ZM19.6334 14.1157C19.3897 14.3595 19.0697 14.482 18.7497 14.482C18.4297 14.482 18.1097 14.3595 17.8659 14.1157L16.2497 12.4995V19.9995C16.2497 20.6907 15.6897 21.2495 14.9997 21.2495C14.3097 21.2495 13.7497 20.6907 13.7497 19.9995V12.4995L12.1334 14.1157C11.6447 14.6045 10.8547 14.6045 10.3659 14.1157C9.87718 13.627 9.87718 12.837 10.3659 12.3482L13.2972 9.41695C14.2059 8.5057 15.7934 8.5057 16.7047 9.41695L19.6347 12.3482C20.1234 12.837 20.1234 13.627 19.6347 14.1157H19.6334Z" fill="#DD2C5C"/>
</svg>
