<svg width="36" height="36" viewBox="0 0 36 36" fill="none" xmlns="http://www.w3.org/2000/svg">
<path d="M29.25 26.25C29.25 28.321 27.571 30 25.5 30C23.4289 30 21.75 28.321 21.75 26.25C21.75 24.1789 23.4289 22.5 25.5 22.5C27.571 22.5 29.25 24.1789 29.25 26.25Z" stroke="#DD2C5C" stroke-width="2.5"/>
<path d="M14.25 26.25C14.25 28.321 12.5711 30 10.5 30C8.42893 30 6.75 28.321 6.75 26.25C6.75 24.1789 8.42893 22.5 10.5 22.5C12.5711 22.5 14.25 24.1789 14.25 26.25Z" stroke="#DD2C5C" stroke-width="2.5"/>
<path d="M21.75 26.25H14.25M3 6H18C20.1213 6 21.1819 6 21.841 6.65901C22.5 7.31802 22.5 8.37869 22.5 10.5V23.25M23.25 9.75H25.9521C27.1966 9.75 27.8188 9.75 28.3347 10.042C28.8504 10.3341 29.1706 10.8677 29.8108 11.9348L32.3587 16.1813C32.6773 16.7123 32.8366 16.9779 32.9184 17.2726C33 17.5674 33 17.877 33 18.4965V22.5C33 23.9019 33 24.6028 32.6985 25.125C32.5011 25.467 32.217 25.7511 31.875 25.9485C31.3528 26.25 30.6519 26.25 29.25 26.25M3 19.5V22.5C3 23.9019 3 24.6028 3.30144 25.125C3.49891 25.467 3.78295 25.7511 4.125 25.9485C4.64712 26.25 5.34807 26.25 6.75 26.25" stroke="#DD2C5C" stroke-width="2.5" stroke-linecap="round" stroke-linejoin="round"/>
<path d="M3 10.5H12M3 15H9" stroke="#DD2C5C" stroke-width="2.5" stroke-linecap="round" stroke-linejoin="round"/>
</svg>
