<svg width="36" height="36" viewBox="0 0 36 36" fill="none" xmlns="http://www.w3.org/2000/svg">
<path d="M13.7151 16.0365L14.0255 15.7261C16.9935 12.758 21.8058 12.758 24.7738 15.7261C27.742 18.6942 27.742 23.5065 24.7738 26.4745L20.4745 30.7738C17.5065 33.742 12.6942 33.742 9.72607 30.7738C6.75798 27.8058 6.75798 22.9935 9.72607 20.0254L10.4226 19.329" stroke="#DD2C5C" stroke-width="2.5" stroke-linecap="round"/>
<path d="M25.5774 16.671L26.2738 15.9745C29.242 13.0064 29.242 8.19418 26.2738 5.22607C23.3058 2.25798 18.4935 2.25798 15.5254 5.22607L11.2261 9.52546C8.25798 12.4936 8.25798 17.3058 11.2261 20.2738C14.1942 23.242 19.0065 23.242 21.9745 20.2738L22.2849 19.9635" stroke="#DD2C5C" stroke-width="2.5" stroke-linecap="round"/>
</svg>
