<svg width="36" height="36" viewBox="0 0 36 36" fill="none" xmlns="http://www.w3.org/2000/svg">
<path d="M15.75 13.125V10.125C15.75 7.65939 15.75 6.42659 15.069 5.59682C14.9444 5.44493 14.8051 5.30564 14.6532 5.18097C13.8234 4.5 12.5906 4.5 10.125 4.5C7.65939 4.5 6.42658 4.5 5.59681 5.18097C5.44492 5.30564 5.30563 5.44493 5.18097 5.59682C4.5 6.42659 4.5 7.65939 4.5 10.125V13.125C4.5 15.5906 4.5 16.8234 5.18097 17.6532C5.30563 17.8052 5.44492 17.9444 5.59681 18.069C6.42658 18.75 7.65939 18.75 10.125 18.75C12.5906 18.75 13.8234 18.75 14.6532 18.069C14.8051 17.9444 14.9444 17.8052 15.069 17.6532C15.75 16.8234 15.75 15.5906 15.75 13.125Z" stroke="#DD2C5C" stroke-width="2.5" stroke-linejoin="round"/>
<path d="M11.625 23.25H8.625C7.57833 23.25 7.05499 23.25 6.62914 23.3791C5.67034 23.67 4.92003 24.4203 4.62918 25.3791C4.5 25.8049 4.5 26.3283 4.5 27.375C4.5 28.4217 4.5 28.9451 4.62918 29.3709C4.92003 30.3297 5.67034 31.08 6.62914 31.3709C7.05499 31.5 7.57833 31.5 8.625 31.5H11.625C12.6717 31.5 13.195 31.5 13.6209 31.3709C14.5797 31.08 15.33 30.3297 15.6209 29.3709C15.75 28.9451 15.75 28.4217 15.75 27.375C15.75 26.3283 15.75 25.8049 15.6209 25.3791C15.33 24.4203 14.5797 23.67 13.6209 23.3791C13.195 23.25 12.6717 23.25 11.625 23.25Z" stroke="#DD2C5C" stroke-width="2.5" stroke-linejoin="round"/>
<path d="M31.5 25.875V22.875C31.5 20.4095 31.5 19.1766 30.819 18.3468C30.6943 18.1949 30.5552 18.0557 30.4032 17.931C29.5734 17.25 28.3406 17.25 25.875 17.25C23.4094 17.25 22.1766 17.25 21.3468 17.931C21.1949 18.0557 21.0557 18.1949 20.931 18.3468C20.25 19.1766 20.25 20.4095 20.25 22.875V25.875C20.25 28.3406 20.25 29.5734 20.931 30.4032C21.0557 30.5552 21.1949 30.6944 21.3468 30.819C22.1766 31.5 23.4094 31.5 25.875 31.5C28.3406 31.5 29.5734 31.5 30.4032 30.819C30.5552 30.6944 30.6943 30.5552 30.819 30.4032C31.5 29.5734 31.5 28.3406 31.5 25.875Z" stroke="#DD2C5C" stroke-width="2.5" stroke-linejoin="round"/>
<path d="M27.375 4.5H24.375C23.3283 4.5 22.805 4.5 22.3791 4.62918C21.4203 4.92003 20.67 5.67034 20.3791 6.62914C20.25 7.05499 20.25 7.57833 20.25 8.625C20.25 9.67167 20.25 10.195 20.3791 10.6209C20.67 11.5797 21.4203 12.33 22.3791 12.6208C22.805 12.75 23.3283 12.75 24.375 12.75H27.375C28.4217 12.75 28.9451 12.75 29.3709 12.6208C30.3297 12.33 31.08 11.5797 31.3709 10.6209C31.5 10.195 31.5 9.67167 31.5 8.625C31.5 7.57833 31.5 7.05499 31.3709 6.62914C31.08 5.67034 30.3297 4.92003 29.3709 4.62918C28.9451 4.5 28.4217 4.5 27.375 4.5Z" stroke="#DD2C5C" stroke-width="2.5" stroke-linejoin="round"/>
</svg>
