<svg width="36" height="36" viewBox="0 0 36 36" fill="none" xmlns="http://www.w3.org/2000/svg">
<path d="M25.5 22.4994C25.5 27.4494 25.5 29.9244 24.0721 31.4622C22.6443 33 20.3461 33 15.75 33C11.1538 33 8.85571 33 7.42785 31.4622C6 29.9244 6 27.4494 6 22.4994V13.4988C6 8.54874 6 6.07371 7.42785 4.53593C8.70354 3.16202 10.6739 3.0156 14.3571 3" stroke="#DD2C5C" stroke-width="2.5" stroke-linecap="round"/>
<path d="M24 6H21C19.5858 6 18.8787 6 18.4394 6.43934C18 6.87869 18 7.58579 18 9V12C18 13.4142 18 14.1213 18.4394 14.5607C18.8787 15 19.5858 15 21 15H24C25.4142 15 26.1213 15 26.5606 14.5607C27 14.1213 27 13.4142 27 12V9C27 7.58579 27 6.87869 26.5606 6.43934C26.1213 6 25.4142 6 24 6Z" stroke="#DD2C5C" stroke-width="2.5" stroke-linecap="round" stroke-linejoin="round"/>
<path d="M20.25 15V18M24.75 15V18M20.25 3V6M24.75 3V6M18 8.25H15M18 12.75H15M30 8.25H27M30 12.75H27" stroke="#DD2C5C" stroke-width="2.5" stroke-linecap="round" stroke-linejoin="round"/>
<path d="M15.7349 28.5H15.7519" stroke="#DD2C5C" stroke-width="2.5" stroke-linecap="round" stroke-linejoin="round"/>
</svg>
