<svg width="34" height="34" viewBox="0 0 34 34" fill="none" xmlns="http://www.w3.org/2000/svg">
<path d="M4.25 15.5826V21.2404C4.25 25.2522 4.25 27.2581 5.4948 28.5045C6.73959 29.7507 8.74306 29.7507 12.75 29.7507H15.5833" stroke="#DD2C5C" stroke-width="2.5" stroke-linecap="round" stroke-linejoin="round"/>
<path d="M24.7918 21.7222V19.8334M24.7918 21.7222C23.462 21.7222 22.2952 22.4313 21.6379 23.4976M24.7918 21.7222C26.1217 21.7222 27.2884 22.4313 27.9458 23.4976M21.6379 23.4976L19.8335 22.3519M21.6379 23.4976C21.2801 24.0781 21.0731 24.7645 21.0731 25.5C21.0731 26.2356 21.2801 26.9219 21.6379 27.5025M27.9458 23.4976L29.7502 22.3519M27.9458 23.4976C28.3036 24.0781 28.5106 24.7645 28.5106 25.5C28.5106 26.2356 28.3036 26.9219 27.9458 27.5025M24.7918 31.1667V29.2779M24.7918 29.2779C23.462 29.2779 22.2952 28.5688 21.6379 27.5025M24.7918 29.2779C26.1217 29.2779 27.2884 28.5688 27.9458 27.5025M21.6379 27.5025L19.8335 28.6482M27.9458 27.5025L29.7502 28.6482" stroke="#DD2C5C" stroke-width="2.5" stroke-linecap="round" stroke-linejoin="round"/>
<path d="M25.2066 2.83719L8.70827 2.8784C6.24586 2.75155 5.61451 4.65003 5.61451 5.57808C5.61451 6.40811 5.50762 7.61815 3.99843 9.89241C2.48924 12.1667 2.60265 12.8423 3.45368 14.4168C4.15999 15.7235 5.95651 16.2339 6.89322 16.3198C9.86852 16.3875 11.3161 13.8145 11.3161 12.0063C12.7921 16.5498 16.9897 16.5498 18.8601 16.0303C20.7339 15.5099 22.3393 13.6466 22.718 12.0063C22.939 14.0448 23.6092 15.2343 25.5898 16.0516C27.6414 16.8983 29.4059 15.6042 30.291 14.7747C31.1763 13.9452 31.7444 12.1037 30.1664 10.0797C29.0781 8.68388 28.6246 7.36891 28.4756 6.00604C28.3893 5.21635 28.3135 4.36778 27.7586 3.82781C26.9477 3.03867 25.7843 2.79922 25.2066 2.83719Z" stroke="#DD2C5C" stroke-width="2.5" stroke-linecap="round" stroke-linejoin="round"/>
</svg>
