<svg width="36" height="36" viewBox="0 0 36 36" fill="none" xmlns="http://www.w3.org/2000/svg">
<path d="M7.5 12C7.5156 8.03341 7.66202 5.91151 9.03584 4.53769C10.5735 3 13.0484 3 17.9982 3C22.9479 3 25.4228 3 26.9604 4.53769C28.3343 5.91151 28.4807 8.03341 28.4963 12M7.5 24C7.5156 27.9666 7.66202 30.0885 9.03584 31.4623C10.5735 33 13.0484 33 17.9982 33C22.9479 33 25.4228 33 26.9604 31.4623C28.3343 30.0885 28.4807 27.9666 28.4963 24" stroke="#DD2C5C" stroke-width="2.5" stroke-linecap="round"/>
<path d="M16.5 28.5H19.5" stroke="#DD2C5C" stroke-width="2.5" stroke-linecap="round" stroke-linejoin="round"/>
<path d="M24 15L25.8397 16.5858C26.6133 17.2524 27 17.5858 27 18C27 18.4141 26.6133 18.7476 25.8397 19.4142L24 21" stroke="#DD2C5C" stroke-width="2.5" stroke-linecap="round" stroke-linejoin="round"/>
<path d="M12 15L10.1602 16.5858C9.38673 17.2524 9 17.5858 9 18C9 18.4141 9.38673 18.7476 10.1602 19.4142L12 21" stroke="#DD2C5C" stroke-width="2.5" stroke-linecap="round" stroke-linejoin="round"/>
<path d="M19.5 13.5L16.5 22.5" stroke="#DD2C5C" stroke-width="2.5" stroke-linecap="round" stroke-linejoin="round"/>
</svg>
