<svg width="152" height="46" viewBox="0 0 152 46" fill="none" xmlns="http://www.w3.org/2000/svg">
<g clip-path="url(#clip0_35_1181)">
<path d="M24.3372 43.0573C18.8622 43.0573 13.3883 43.0573 7.91323 43.0573C7.645 43.0573 7.37677 43.0513 7.1097 43.0454C6.69872 43.0359 6.51568 42.8279 6.57555 42.3988C6.7724 40.9928 6.95198 39.5844 7.16611 38.182C7.29964 37.3049 7.3975 37.2419 8.24362 37.2419C11.8618 37.2419 15.4788 37.2407 19.097 37.2419C20.0422 37.2419 20.1492 37.1373 20.2402 36.1936C20.3645 34.897 20.5141 33.6015 20.6293 32.3036C20.665 31.9019 20.8273 31.7641 21.2106 31.7771C21.899 31.8021 22.5886 31.8033 23.277 31.7783C23.658 31.7652 23.8768 31.9411 24.0506 32.262C24.8115 33.6764 25.599 35.0764 26.338 36.5026C26.6166 37.0398 26.9585 37.268 27.5617 37.2514C29.0341 37.2122 30.5088 37.2431 31.9834 37.2407C32.7202 37.2407 32.8411 37.0398 32.4623 36.36C31.6139 34.8375 30.7528 33.3234 29.8802 31.8152C29.2724 30.7645 29.277 30.711 30.2912 30.0966C33.4075 28.2092 34.592 24.4547 33.6458 21.1293C32.9412 18.6548 31.1511 17.3629 28.828 16.834C27.7183 16.5809 26.5567 16.4822 25.4182 16.4727C20.6903 16.4335 15.9623 16.4549 11.2344 16.4513C10.272 16.4513 10.2191 16.4157 10.3411 15.4565C10.6128 13.3267 10.9293 11.2029 11.1987 9.07307C11.2701 8.50972 11.5441 8.3564 12.046 8.3671C13.1753 8.39206 14.3046 8.38017 15.4339 8.3873C16.2421 8.39206 16.4009 8.26845 16.5805 7.47334C17.4739 3.50491 19.942 1.16593 23.7006 0.199672C27.5871 -0.798674 32.5901 2.0062 33.1703 7.01933C33.3522 8.59172 33.4558 8.38968 34.721 8.38255C35.353 8.37898 35.985 8.3873 36.6158 8.37066C37.0924 8.35878 37.3687 8.54418 37.4366 9.06118C37.7175 11.21 38.0042 13.3576 38.3046 15.5029C38.7536 18.7047 39.2244 21.903 39.6688 25.106C40.0418 27.8028 40.3837 30.5031 40.7486 33.201C41.14 36.0914 41.5452 38.9795 41.9435 41.8688C41.9735 42.0839 41.9999 42.299 42.0207 42.5153C42.0552 42.8588 41.9067 43.0382 41.5671 43.043C41.376 43.0454 41.1849 43.0525 40.9927 43.0525C35.4416 43.0525 29.8906 43.0525 24.3396 43.0525V43.0573H24.3372ZM24.7712 8.39562C26.4531 8.39562 28.135 8.40156 29.8169 8.39324C30.4627 8.38968 30.6699 8.20308 30.5974 7.6742C30.3683 5.98889 29.6178 4.6019 28.2248 3.66774C24.8484 1.40244 20.292 3.65466 19.1673 7.48522C18.9623 8.18288 19.1258 8.38849 19.8396 8.39206C21.4834 8.40037 23.1273 8.39443 24.7712 8.39681V8.39562ZM18.8645 11.0864C18.6297 11.7591 18.5076 12.4983 17.6132 12.5697C16.5034 12.6588 16.3135 11.7698 16.0165 10.9473C15.6181 11.6878 15.754 12.326 16.3618 12.8181C17.0813 13.4004 17.9528 13.385 18.6112 12.7788C19.1143 12.3165 19.2225 11.6593 18.8645 11.0864ZM30.2359 11.172C29.8963 12.0075 30.0587 12.4294 30.7885 12.8941C31.6254 13.4266 32.4198 13.2899 33.0851 12.4983C33.4996 12.0051 33.5364 11.5012 33.1392 11.0044C32.9401 11.7555 32.8077 12.5102 31.8407 12.5649C30.9151 12.6172 30.6216 11.9243 30.2359 11.172Z" fill="url(#paint0_linear_35_1181)"/>
<path d="M7.08668 43.5971C7.28468 43.5971 7.48153 43.5971 7.67954 43.5971C19.0303 43.6006 30.381 43.6042 41.7329 43.6054C42.6009 43.6054 42.6826 43.4889 42.5594 42.5916C41.9148 37.9041 41.2885 33.2131 40.6266 28.528C39.8518 23.0442 39.0425 17.5664 38.2551 12.085C38.1492 11.3469 38.0779 10.6029 38.0065 9.99678C38.4382 10.3272 38.9309 10.6802 39.3914 11.0736C39.5019 11.1675 39.5318 11.3885 39.5594 11.5585C40.0372 14.5571 40.5046 17.5581 40.9835 20.5579C41.6926 24.9957 42.4063 29.4336 43.127 33.8703C43.7371 37.626 44.3599 41.3793 44.9746 45.1338C45.0782 45.7697 44.8917 45.9907 44.2298 45.9919C41.9516 45.9979 39.6746 45.9967 37.3963 45.9967C28.3618 45.9967 19.3261 45.9895 10.2916 46.0002C9.68836 46.0002 9.27278 45.8992 9.10701 45.1921C9.0437 44.9211 8.7087 44.6798 8.44623 44.5063C8.00648 44.2127 7.52528 43.9845 7.0625 43.7278C7.07171 43.6838 7.07977 43.6411 7.08898 43.5971H7.08668Z" fill="url(#paint1_linear_35_1181)"/>
<path d="M24.0345 21.1614C24.7552 21.2196 25.4862 21.2184 26.1953 21.3492C27.4628 21.5833 28.1327 22.4854 28.1247 23.8165C28.1132 25.6266 26.8388 26.9827 24.9474 27.111C23.8814 27.1835 22.8085 27.1408 21.739 27.1586C21.3304 27.1657 21.2049 26.9684 21.2521 26.5691C21.4455 24.9468 21.6343 23.3245 21.8093 21.701C21.8496 21.3278 22.0222 21.1923 22.3699 21.2006C22.9236 21.2137 23.4785 21.2042 24.0322 21.2042C24.0322 21.1899 24.0345 21.1756 24.0357 21.1614H24.0345Z" fill="url(#paint2_linear_35_1181)"/>
<path d="M10.3134 35.1093C9.14725 35.1093 7.97995 35.0891 6.81494 35.1176C6.25431 35.1319 6.15301 34.8538 6.15531 34.3558C6.15761 33.8531 6.31418 33.6665 6.82415 33.6724C9.13689 33.6962 11.4508 33.6962 13.7635 33.6724C14.3023 33.6665 14.4508 33.8673 14.4565 34.3962C14.4634 34.9465 14.2666 35.1236 13.7543 35.1129C12.6077 35.0891 11.46 35.1057 10.3134 35.1057V35.1105V35.1093Z" fill="url(#paint3_linear_35_1181)"/>
<path d="M12.3153 18.7092C13.3468 18.7092 14.3794 18.727 15.4097 18.7021C15.9036 18.6902 16.021 18.922 16.0279 19.3831C16.0348 19.8514 15.9047 20.0712 15.4178 20.0677C13.3733 20.0534 11.3299 20.051 9.2854 20.0653C8.76046 20.0689 8.59584 19.8537 8.60275 19.3225C8.6085 18.7983 8.84219 18.6949 9.27619 18.7021C10.2881 18.7187 11.3011 18.708 12.313 18.708L12.3153 18.7092Z" fill="url(#paint4_linear_35_1181)"/>
<path d="M9.28546 32.109C8.40825 32.109 7.5299 32.0947 6.65384 32.1138C6.09206 32.1256 6.07134 31.7738 6.06558 31.3389C6.05983 30.8896 6.21639 30.6994 6.6665 30.7042C8.42092 30.7196 10.1765 30.7244 11.9309 30.7042C12.4558 30.6982 12.5122 30.9871 12.518 31.4137C12.5238 31.8582 12.4236 32.1304 11.9182 32.1185C11.041 32.0971 10.1638 32.1126 9.28661 32.1126C9.28661 32.1126 9.28661 32.1114 9.28661 32.1102L9.28546 32.109Z" fill="url(#paint5_linear_35_1181)"/>
<path d="M8.86067 23.0859C8.0203 23.0859 7.18108 23.0692 6.34071 23.0918C5.82268 23.1061 5.7513 22.809 5.75245 22.3775C5.75245 21.9378 5.85146 21.6668 6.35798 21.6716C8.03757 21.6882 9.71715 21.6965 11.3967 21.6692C11.9908 21.6597 12.0138 21.983 12.0253 22.4536C12.038 22.9623 11.8342 23.1061 11.3795 23.0942C10.5403 23.0728 9.69988 23.0883 8.85952 23.0883C8.85952 23.0883 8.85952 23.0871 8.85952 23.0859H8.86067Z" fill="url(#paint6_linear_35_1181)"/>
<path d="M12.8068 26.0616C12.0793 26.0616 11.3517 26.0378 10.6253 26.0687C10.067 26.0925 10.075 25.7348 10.067 25.3354C10.0589 24.9266 10.1303 24.658 10.6265 24.6663C12.0804 24.6889 13.5355 24.6877 14.9895 24.6663C15.5098 24.6592 15.5743 24.9408 15.5789 25.3782C15.5846 25.8251 15.5075 26.0913 14.9872 26.0664C14.2619 26.0319 13.5332 26.058 12.8057 26.058V26.0604L12.8068 26.0616Z" fill="url(#paint7_linear_35_1181)"/>
<path d="M6.87484 26.058C6.15074 26.058 5.42549 26.0402 4.70139 26.064C4.18335 26.0818 4.12119 25.787 4.11543 25.3532C4.10968 24.8957 4.22595 24.658 4.72326 24.6663C6.11505 24.6877 7.50684 24.6889 8.89863 24.6663C9.39709 24.658 9.50991 24.8909 9.50415 25.3497C9.4984 25.812 9.42933 26.102 8.87675 26.0663C8.21252 26.0236 7.54253 26.0568 6.87599 26.0568L6.87484 26.058Z" fill="url(#paint8_linear_35_1181)"/>
<path d="M13.0578 29.0503C12.4857 29.0503 11.9135 29.0396 11.3414 29.0551C10.8717 29.067 10.7739 28.8126 10.7785 28.3848C10.7831 27.9807 10.8303 27.6717 11.3092 27.6752C12.4914 27.6836 13.6737 27.699 14.856 27.699C15.366 27.699 15.3545 28.0389 15.3648 28.4192C15.3752 28.8233 15.2739 29.0634 14.8318 29.0539C14.2413 29.0408 13.6495 29.0503 13.0578 29.0515V29.0503Z" fill="url(#paint9_linear_35_1181)"/>
<path d="M3.69881 30.711C4.17655 30.711 4.65545 30.7277 5.13204 30.7075C5.57985 30.6885 5.6305 30.9796 5.62245 31.3219C5.61439 31.6642 5.70879 32.0933 5.17348 32.0992C4.16044 32.1111 3.14739 32.1087 2.13434 32.1052C1.59328 32.1028 1.68768 31.6785 1.67732 31.3362C1.66696 30.9998 1.69689 30.6944 2.15046 30.7075C2.66619 30.7229 3.18192 30.711 3.69881 30.711Z" fill="url(#paint10_linear_35_1181)"/>
<path d="M4.79259 29.0569C4.29527 29.0569 3.79796 29.0509 3.30065 29.0581C2.82405 29.0652 2.80794 28.7336 2.80678 28.3759C2.80448 28.0169 2.82405 27.6806 3.29374 27.6806C4.2688 27.6806 5.24385 27.6853 6.22006 27.6794C6.74846 27.6758 6.76227 28.03 6.76918 28.4388C6.77609 28.8453 6.67018 29.0783 6.22697 29.0592C5.74923 29.039 5.27148 29.0545 4.79259 29.0545C4.79259 29.0545 4.79259 29.0557 4.79259 29.0569Z" fill="url(#paint11_linear_35_1181)"/>
<path d="M14.301 23.0868C13.9948 23.0868 13.6886 23.0713 13.3824 23.0891C12.915 23.1165 12.6203 23.0178 12.6191 22.4224C12.618 21.8483 12.8287 21.6439 13.3686 21.6677C14.0558 21.6974 14.7465 21.6986 15.4338 21.6724C16.0094 21.6499 16.0152 22.0124 16.0244 22.4438C16.0336 22.8764 15.9265 23.126 15.4476 23.0927C15.0666 23.0654 14.6832 23.0868 14.2999 23.0868H14.301Z" fill="url(#paint12_linear_35_1181)"/>
<path d="M1.5495 33.6799C1.79816 33.6799 2.04682 33.6799 2.29547 33.6799C3.01497 33.6847 3.05065 33.7477 3.05871 34.5012C3.06332 34.9374 2.89985 35.1145 2.49002 35.1097C1.8396 35.1014 1.18918 35.1014 0.538757 35.1097C0.00230238 35.1192 0 34.752 0 34.3502C0 33.9378 0.0932464 33.6502 0.574444 33.6764C0.899079 33.6942 1.22487 33.6799 1.5495 33.6799Z" fill="url(#paint13_linear_35_1181)"/>
<path d="M4.58897 33.6867C4.70294 33.6867 4.81806 33.6974 4.93087 33.6843C5.46963 33.6225 5.69526 33.8531 5.67339 34.4224C5.64691 35.1141 5.60777 35.1771 4.91015 35.1818C4.70064 35.183 4.48997 35.164 4.28275 35.1854C3.41936 35.2734 3.38943 34.7671 3.51606 34.0444C3.54139 33.9018 3.79235 33.7544 3.96503 33.701C4.15727 33.6415 4.37945 33.6879 4.58897 33.6867Z" fill="url(#paint14_linear_35_1181)"/>
<path d="M8.68596 29.0563C8.51444 29.0563 8.34176 29.0444 8.17138 29.0599C7.67177 29.1027 7.44498 28.9137 7.44728 28.3551C7.44843 27.8072 7.70054 27.6729 8.15642 27.6931C8.4799 27.7074 8.80684 27.7133 9.12917 27.6895C9.6426 27.6515 9.89126 27.8155 9.90047 28.4098C9.90968 29.0242 9.5977 29.0896 9.14529 29.0575C8.99333 29.0468 8.84022 29.0563 8.68711 29.0575L8.68596 29.0563Z" fill="url(#paint15_linear_35_1181)"/>
<path d="M14.3095 30.7122C14.4246 30.7122 14.5397 30.7229 14.6537 30.7098C15.1545 30.6516 15.3744 30.8263 15.3744 31.3956C15.3744 31.9471 15.1913 32.1574 14.6744 32.1099C14.4465 32.0897 14.2163 32.1099 13.9872 32.1075C13.2308 32.1028 12.9879 31.7854 13.2216 31.0426C13.2654 30.9024 13.4714 30.7645 13.6257 30.7253C13.8421 30.6718 14.0816 30.7122 14.3107 30.711L14.3095 30.7122Z" fill="url(#paint16_linear_35_1181)"/>
</g>
<path d="M151.494 32.6077C151.494 32.9144 151.474 33.1904 151.433 33.4358H145.222C145.273 34.0492 145.488 34.5297 145.866 34.8773C146.244 35.2249 146.71 35.3987 147.262 35.3987C148.059 35.3987 148.627 35.0562 148.964 34.3712H151.28C151.034 35.1891 150.564 35.8639 149.869 36.3955C149.174 36.9169 148.32 37.1777 147.308 37.1777C146.49 37.1777 145.754 36.9987 145.099 36.6409C144.455 36.2729 143.949 35.7566 143.581 35.092C143.223 34.4275 143.044 33.6607 143.044 32.7917C143.044 31.9124 143.223 31.1406 143.581 30.476C143.939 29.8115 144.44 29.3003 145.084 28.9425C145.728 28.5846 146.469 28.4057 147.308 28.4057C148.115 28.4057 148.836 28.5795 149.47 28.9271C150.114 29.2747 150.61 29.7706 150.958 30.4147C151.315 31.0485 151.494 31.7795 151.494 32.6077ZM149.271 31.9942C149.26 31.4421 149.061 31.0025 148.673 30.6754C148.284 30.338 147.809 30.1693 147.246 30.1693C146.715 30.1693 146.265 30.3329 145.897 30.66C145.539 30.977 145.319 31.4217 145.237 31.9942H149.271Z" fill="#24262D"/>
<path d="M133.819 32.7917C133.819 31.9124 133.998 31.1457 134.356 30.4913C134.714 29.8268 135.21 29.3156 135.844 28.9578C136.478 28.5897 137.203 28.4057 138.021 28.4057C139.074 28.4057 139.943 28.6715 140.628 29.2032C141.324 29.7246 141.789 30.4607 142.024 31.4115H139.708C139.586 31.0434 139.376 30.7572 139.079 30.5527C138.793 30.338 138.435 30.2306 138.006 30.2306C137.393 30.2306 136.907 30.4556 136.549 30.9054C136.191 31.345 136.012 31.9738 136.012 32.7917C136.012 33.5994 136.191 34.2281 136.549 34.678C136.907 35.1176 137.393 35.3374 138.006 35.3374C138.875 35.3374 139.442 34.9489 139.708 34.1719H142.024C141.789 35.092 141.324 35.823 140.628 36.3649C139.933 36.9067 139.064 37.1777 138.021 37.1777C137.203 37.1777 136.478 36.9987 135.844 36.6409C135.21 36.2729 134.714 35.7617 134.356 35.1074C133.998 34.4428 133.819 33.6709 133.819 32.7917Z" fill="#24262D"/>
<path d="M130.318 29.8626C130.594 29.4127 130.952 29.06 131.392 28.8044C131.842 28.5488 132.353 28.421 132.925 28.421V30.6754H132.358C131.683 30.6754 131.172 30.8338 130.824 31.1508C130.487 31.4677 130.318 32.0198 130.318 32.807V37.0396H128.171V28.5437H130.318V29.8626Z" fill="#24262D"/>
<path d="M126.605 32.6077C126.605 32.9144 126.584 33.1904 126.543 33.4358H120.332C120.384 34.0492 120.598 34.5297 120.977 34.8773C121.355 35.2249 121.82 35.3987 122.372 35.3987C123.17 35.3987 123.737 35.0562 124.074 34.3712H126.39C126.145 35.1891 125.674 35.8639 124.979 36.3955C124.284 36.9169 123.43 37.1777 122.418 37.1777C121.6 37.1777 120.864 36.9987 120.21 36.6409C119.566 36.2729 119.06 35.7566 118.692 35.092C118.334 34.4275 118.155 33.6607 118.155 32.7917C118.155 31.9124 118.334 31.1406 118.692 30.476C119.049 29.8115 119.55 29.3003 120.194 28.9425C120.839 28.5846 121.58 28.4057 122.418 28.4057C123.226 28.4057 123.947 28.5795 124.58 28.9271C125.224 29.2747 125.72 29.7706 126.068 30.4147C126.426 31.0485 126.605 31.7795 126.605 32.6077ZM124.381 31.9942C124.371 31.4421 124.171 31.0025 123.783 30.6754C123.394 30.338 122.919 30.1693 122.357 30.1693C121.825 30.1693 121.375 30.3329 121.007 30.66C120.649 30.977 120.43 31.4217 120.348 31.9942H124.381Z" fill="#24262D"/>
<path d="M113.188 28.421C114.23 28.421 115.069 28.7431 115.703 29.3872C116.347 30.0211 116.669 30.9105 116.669 32.0556V37.0396H114.522V32.347C114.522 31.6824 114.353 31.1763 114.016 30.8287C113.678 30.4709 113.218 30.292 112.636 30.292C112.053 30.292 111.588 30.4709 111.24 30.8287C110.903 31.1763 110.734 31.6824 110.734 32.347V37.0396H108.587V32.347C108.587 31.6824 108.418 31.1763 108.081 30.8287C107.743 30.4709 107.283 30.292 106.701 30.292C106.108 30.292 105.637 30.4709 105.29 30.8287C104.952 31.1763 104.784 31.6824 104.784 32.347V37.0396H102.637V28.5437H104.784V29.5712C105.06 29.2134 105.412 28.9322 105.842 28.7278C106.281 28.5233 106.762 28.421 107.283 28.421C107.948 28.421 108.541 28.5642 109.062 28.8504C109.584 29.1265 109.988 29.5252 110.274 30.0466C110.55 29.5559 110.949 29.1623 111.47 28.8658C112.002 28.5693 112.574 28.421 113.188 28.421Z" fill="#24262D"/>
<path d="M97.1183 28.421C98.1611 28.421 98.9994 28.7431 99.6333 29.3872C100.277 30.0211 100.599 30.9105 100.599 32.0556V37.0396H98.4524V32.347C98.4524 31.6824 98.2838 31.1763 97.9464 30.8287C97.609 30.4709 97.1489 30.292 96.5662 30.292C95.9834 30.292 95.5182 30.4709 95.1706 30.8287C94.8333 31.1763 94.6646 31.6824 94.6646 32.347V37.0396H92.5176V32.347C92.5176 31.6824 92.3489 31.1763 92.0115 30.8287C91.6741 30.4709 91.2141 30.292 90.6313 30.292C90.0383 30.292 89.568 30.4709 89.2204 30.8287C88.8831 31.1763 88.7144 31.6824 88.7144 32.347V37.0396H86.5674V28.5437H88.7144V29.5712C88.9904 29.2134 89.3431 28.9322 89.7725 28.7278C90.2121 28.5233 90.6926 28.421 91.2141 28.421C91.8786 28.421 92.4716 28.5642 92.993 28.8504C93.5144 29.1265 93.9182 29.5252 94.2045 30.0466C94.4805 29.5559 94.8793 29.1623 95.4007 28.8658C95.9323 28.5693 96.5048 28.421 97.1183 28.421Z" fill="#24262D"/>
<path d="M80.5608 37.1777C79.7429 37.1777 79.0068 36.9987 78.3524 36.6409C77.6981 36.2729 77.1818 35.7566 76.8035 35.092C76.4355 34.4275 76.2515 33.6607 76.2515 32.7917C76.2515 31.9227 76.4406 31.1559 76.8189 30.4913C77.2074 29.8268 77.7339 29.3156 78.3984 28.9578C79.063 28.5897 79.8042 28.4057 80.6221 28.4057C81.44 28.4057 82.1812 28.5897 82.8458 28.9578C83.5103 29.3156 84.0317 29.8268 84.41 30.4913C84.7985 31.1559 84.9927 31.9227 84.9927 32.7917C84.9927 33.6607 84.7934 34.4275 84.3947 35.092C84.0061 35.7566 83.4745 36.2729 82.7998 36.6409C82.1352 36.9987 81.3889 37.1777 80.5608 37.1777ZM80.5608 35.3067C80.9493 35.3067 81.3122 35.2147 81.6496 35.0307C81.9972 34.8364 82.2732 34.5502 82.4777 34.1719C82.6822 33.7936 82.7844 33.3335 82.7844 32.7917C82.7844 31.984 82.5697 31.3655 82.1403 30.9361C81.7212 30.4965 81.2049 30.2766 80.5914 30.2766C79.978 30.2766 79.4617 30.4965 79.0425 30.9361C78.6336 31.3655 78.4291 31.984 78.4291 32.7917C78.4291 33.5994 78.6285 34.223 79.0272 34.6626C79.4362 35.092 79.9473 35.3067 80.5608 35.3067Z" fill="#24262D"/>
<path d="M64.4956 31.6722C64.4956 30.6191 64.7308 29.6786 65.201 28.8504C65.6816 28.0121 66.3308 27.3629 67.1487 26.9028C67.9768 26.4325 68.902 26.1974 69.9244 26.1974C71.1206 26.1974 72.1685 26.5041 73.0682 27.1175C73.9679 27.7309 74.5966 28.5795 74.9545 29.6632H72.4854C72.2401 29.152 71.8925 28.7687 71.4426 28.5131C71.003 28.2575 70.4918 28.1297 69.9091 28.1297C69.2854 28.1297 68.7282 28.2779 68.2375 28.5744C67.757 28.8607 67.3787 29.2696 67.1027 29.8012C66.8368 30.3329 66.7039 30.9565 66.7039 31.6722C66.7039 32.3776 66.8368 33.0013 67.1027 33.5431C67.3787 34.0748 67.757 34.4888 68.2375 34.7853C68.7282 35.0716 69.2854 35.2147 69.9091 35.2147C70.4918 35.2147 71.003 35.0869 71.4426 34.8313C71.8925 34.5655 72.2401 34.177 72.4854 33.6658H74.9545C74.5966 34.7597 73.9679 35.6134 73.0682 36.2268C72.1787 36.83 71.1308 37.1316 69.9244 37.1316C68.902 37.1316 67.9768 36.9016 67.1487 36.4415C66.3308 35.9713 65.6816 35.3221 65.201 34.4939C64.7308 33.6658 64.4956 32.7252 64.4956 31.6722Z" fill="#24262D"/>
<path d="M63.4499 32.6077C63.4499 32.9144 63.4295 33.1904 63.3886 33.4358H57.1777C57.2288 34.0492 57.4435 34.5297 57.8217 34.8773C58.2 35.2249 58.6652 35.3987 59.2173 35.3987C60.0147 35.3987 60.5821 35.0562 60.9195 34.3712H63.2352C62.9898 35.1891 62.5195 35.8639 61.8243 36.3955C61.1291 36.9169 60.2754 37.1777 59.2633 37.1777C58.4454 37.1777 57.7093 36.9987 57.055 36.6409C56.4109 36.2729 55.9048 35.7566 55.5367 35.092C55.1789 34.4275 55 33.6607 55 32.7917C55 31.9124 55.1789 31.1406 55.5367 30.476C55.8946 29.8115 56.3955 29.3003 57.0396 28.9425C57.6837 28.5846 58.4249 28.4057 59.2633 28.4057C60.071 28.4057 60.7917 28.5795 61.4256 28.9271C62.0697 29.2747 62.5655 29.7706 62.9132 30.4147C63.271 31.0485 63.4499 31.7795 63.4499 32.6077ZM61.2262 31.9942C61.216 31.4421 61.0167 31.0025 60.6282 30.6754C60.2397 30.338 59.7642 30.1693 59.2019 30.1693C58.6703 30.1693 58.2205 30.3329 57.8524 30.66C57.4946 30.977 57.2748 31.4217 57.193 31.9942H61.2262Z" fill="#24262D"/>
<path d="M103.756 11.6746L98.4957 24.1884H96.2107L98.051 19.9558L94.6465 11.6746H97.0542L99.2472 17.6095L101.471 11.6746H103.756Z" fill="#24262D"/>
<path d="M84.6826 15.8919C84.6826 15.0331 84.8513 14.2714 85.1887 13.6069C85.5363 12.9423 86.0066 12.4312 86.5996 12.0733C87.1925 11.7155 87.852 11.5366 88.5779 11.5366C89.1299 11.5366 89.6565 11.6593 90.1574 11.9046C90.6584 12.1398 91.0571 12.4567 91.3536 12.8554V8.82219H93.5312V20.1705H91.3536V18.913C91.0878 19.3322 90.7146 19.6695 90.2341 19.9251C89.7536 20.1807 89.1964 20.3085 88.5625 20.3085C87.8469 20.3085 87.1925 20.1245 86.5996 19.7564C86.0066 19.3884 85.5363 18.8721 85.1887 18.2076C84.8513 17.5328 84.6826 16.7609 84.6826 15.8919ZM91.3689 15.9226C91.3689 15.4011 91.2667 14.9564 91.0622 14.5884C90.8577 14.2101 90.5817 13.9238 90.2341 13.7296C89.8865 13.5251 89.5133 13.4229 89.1146 13.4229C88.7159 13.4229 88.3478 13.52 88.0104 13.7142C87.6731 13.9085 87.397 14.1948 87.1823 14.573C86.9778 14.9411 86.8756 15.3807 86.8756 15.8919C86.8756 16.4031 86.9778 16.8529 87.1823 17.2414C87.397 17.6197 87.6731 17.9111 88.0104 18.1155C88.358 18.32 88.7261 18.4223 89.1146 18.4223C89.5133 18.4223 89.8865 18.3251 90.2341 18.1309C90.5817 17.9264 90.8577 17.6401 91.0622 17.2721C91.2667 16.8938 91.3689 16.444 91.3689 15.9226Z" fill="#24262D"/>
<path d="M74.2891 15.8919C74.2891 15.0331 74.4578 14.2714 74.7951 13.6069C75.1427 12.9423 75.6079 12.4312 76.1907 12.0733C76.7836 11.7155 77.4431 11.5366 78.169 11.5366C78.8028 11.5366 79.3549 11.6644 79.8252 11.92C80.3057 12.1756 80.6891 12.4976 80.9754 12.8861V11.6746H83.1377V20.1705H80.9754V18.9283C80.6993 19.327 80.3159 19.6593 79.8252 19.9251C79.3447 20.1807 78.7875 20.3085 78.1536 20.3085C77.438 20.3085 76.7836 20.1245 76.1907 19.7564C75.6079 19.3884 75.1427 18.8721 74.7951 18.2075C74.4578 17.5328 74.2891 16.7609 74.2891 15.8919ZM80.9754 15.9225C80.9754 15.4011 80.8731 14.9564 80.6687 14.5884C80.4642 14.2101 80.1881 13.9238 79.8405 13.7296C79.4929 13.5251 79.1198 13.4229 78.721 13.4229C78.3223 13.4229 77.9543 13.52 77.6169 13.7142C77.2795 13.9085 77.0035 14.1947 76.7888 14.573C76.5843 14.9411 76.482 15.3807 76.482 15.8919C76.482 16.4031 76.5843 16.8529 76.7888 17.2414C77.0035 17.6197 77.2795 17.9111 77.6169 18.1155C77.9645 18.32 78.3325 18.4222 78.721 18.4222C79.1198 18.4222 79.4929 18.3251 79.8405 18.1309C80.1881 17.9264 80.4642 17.6401 80.6687 17.2721C80.8731 16.8938 80.9754 16.444 80.9754 15.9225Z" fill="#24262D"/>
<path d="M73.2741 15.7385C73.2741 16.0452 73.2537 16.3213 73.2128 16.5666H67.0019C67.053 17.1801 67.2677 17.6606 67.646 18.0082C68.0242 18.3558 68.4894 18.5296 69.0415 18.5296C69.8389 18.5296 70.4064 18.1871 70.7437 17.5021H73.0594C72.8141 18.32 72.3438 18.9948 71.6485 19.5264C70.9533 20.0478 70.0997 20.3085 69.0875 20.3085C68.2696 20.3085 67.5335 20.1296 66.8792 19.7718C66.2351 19.4037 65.729 18.8874 65.361 18.2229C65.0031 17.5583 64.8242 16.7916 64.8242 15.9225C64.8242 15.0433 65.0031 14.2714 65.361 13.6069C65.7188 12.9423 66.2198 12.4312 66.8638 12.0733C67.5079 11.7155 68.2492 11.5366 69.0875 11.5366C69.8952 11.5366 70.616 11.7104 71.2498 12.058C71.8939 12.4056 72.3898 12.9014 72.7374 13.5455C73.0952 14.1794 73.2741 14.9104 73.2741 15.7385ZM71.0505 15.1251C71.0402 14.573 70.8409 14.1334 70.4524 13.8062C70.0639 13.4689 69.5885 13.3002 69.0262 13.3002C68.4945 13.3002 68.0447 13.4637 67.6766 13.7909C67.3188 14.1078 67.099 14.5526 67.0172 15.1251H71.0505Z" fill="#24262D"/>
<path d="M61.0731 20.1705L58.7114 15.9992H57.6992V20.1705H55.5522V9.46628H59.5702C60.3983 9.46628 61.1037 9.61452 61.6865 9.91101C62.2692 10.1973 62.7037 10.5909 62.99 11.0918C63.2865 11.5826 63.4347 12.1347 63.4347 12.7481C63.4347 13.4535 63.2303 14.0925 62.8213 14.665C62.4124 15.2273 61.804 15.6158 60.9964 15.8305L63.5574 20.1705H61.0731ZM57.6992 14.389H59.4935C60.0762 14.389 60.5107 14.251 60.797 13.9749C61.0833 13.6887 61.2264 13.2951 61.2264 12.7941C61.2264 12.3034 61.0833 11.9251 60.797 11.6593C60.5107 11.3832 60.0762 11.2452 59.4935 11.2452H57.6992V14.389Z" fill="#24262D"/>
<defs>
<linearGradient id="paint0_linear_35_1181" x1="11.9216" y1="-2.07688" x2="21.0061" y2="55.2687" gradientUnits="userSpaceOnUse">
<stop stop-color="#D63384"/>
<stop offset="1" stop-color="#DC3545"/>
</linearGradient>
<linearGradient id="paint1_linear_35_1181" x1="12.794" y1="8.26071" x2="18.7878" y2="56.6723" gradientUnits="userSpaceOnUse">
<stop stop-color="#D63384"/>
<stop offset="1" stop-color="#DC3545"/>
</linearGradient>
<linearGradient id="paint2_linear_35_1181" x1="22.2824" y1="20.8722" x2="23.2014" y2="28.9556" gradientUnits="userSpaceOnUse">
<stop stop-color="#D63384"/>
<stop offset="1" stop-color="#DC3545"/>
</linearGradient>
<linearGradient id="paint3_linear_35_1181" x1="7.40939" y1="33.6026" x2="7.45422" y2="35.5755" gradientUnits="userSpaceOnUse">
<stop stop-color="#D63384"/>
<stop offset="1" stop-color="#DC3545"/>
</linearGradient>
<linearGradient id="paint4_linear_35_1181" x1="9.72434" y1="18.6358" x2="9.76908" y2="20.4997" gradientUnits="userSpaceOnUse">
<stop stop-color="#D63384"/>
<stop offset="1" stop-color="#DC3545"/>
</linearGradient>
<linearGradient id="paint5_linear_35_1181" x1="7.04027" y1="30.6359" x2="7.09547" y2="32.5658" gradientUnits="userSpaceOnUse">
<stop stop-color="#D63384"/>
<stop offset="1" stop-color="#DC3545"/>
</linearGradient>
<linearGradient id="paint6_linear_35_1181" x1="6.70018" y1="21.6002" x2="6.75785" y2="23.5452" gradientUnits="userSpaceOnUse">
<stop stop-color="#D63384"/>
<stop offset="1" stop-color="#DC3545"/>
</linearGradient>
<linearGradient id="paint7_linear_35_1181" x1="10.8992" y1="24.5984" x2="10.9628" y2="26.5128" gradientUnits="userSpaceOnUse">
<stop stop-color="#D63384"/>
<stop offset="1" stop-color="#DC3545"/>
</linearGradient>
<linearGradient id="paint8_linear_35_1181" x1="4.92938" y1="24.5984" x2="4.99438" y2="26.512" gradientUnits="userSpaceOnUse">
<stop stop-color="#D63384"/>
<stop offset="1" stop-color="#DC3545"/>
</linearGradient>
<linearGradient id="paint9_linear_35_1181" x1="11.4713" y1="27.6086" x2="11.5452" y2="29.4902" gradientUnits="userSpaceOnUse">
<stop stop-color="#D63384"/>
<stop offset="1" stop-color="#DC3545"/>
</linearGradient>
<linearGradient id="paint10_linear_35_1181" x1="2.27228" y1="30.639" x2="2.3607" y2="32.5483" gradientUnits="userSpaceOnUse">
<stop stop-color="#D63384"/>
<stop offset="1" stop-color="#DC3545"/>
</linearGradient>
<linearGradient id="paint11_linear_35_1181" x1="3.40532" y1="27.6128" x2="3.49086" y2="29.4942" gradientUnits="userSpaceOnUse">
<stop stop-color="#D63384"/>
<stop offset="1" stop-color="#DC3545"/>
</linearGradient>
<linearGradient id="paint12_linear_35_1181" x1="13.1337" y1="21.5969" x2="13.2403" y2="23.5431" gradientUnits="userSpaceOnUse">
<stop stop-color="#D63384"/>
<stop offset="1" stop-color="#DC3545"/>
</linearGradient>
<linearGradient id="paint13_linear_35_1181" x1="0.462099" y1="33.6055" x2="0.581591" y2="35.5576" gradientUnits="userSpaceOnUse">
<stop stop-color="#D63384"/>
<stop offset="1" stop-color="#DC3545"/>
</linearGradient>
<linearGradient id="paint14_linear_35_1181" x1="3.79539" y1="33.5971" x2="3.98094" y2="35.662" gradientUnits="userSpaceOnUse">
<stop stop-color="#D63384"/>
<stop offset="1" stop-color="#DC3545"/>
</linearGradient>
<linearGradient id="paint15_linear_35_1181" x1="7.81791" y1="27.6177" x2="7.9557" y2="29.4935" gradientUnits="userSpaceOnUse">
<stop stop-color="#D63384"/>
<stop offset="1" stop-color="#DC3545"/>
</linearGradient>
<linearGradient id="paint16_linear_35_1181" x1="13.4743" y1="30.6291" x2="13.6335" y2="32.5531" gradientUnits="userSpaceOnUse">
<stop stop-color="#D63384"/>
<stop offset="1" stop-color="#DC3545"/>
</linearGradient>
<clipPath id="clip0_35_1181">
<rect width="45" height="46" fill="white"/>
</clipPath>
</defs>
</svg>
