<svg width="192" height="54" viewBox="0 0 192 54" fill="none" xmlns="http://www.w3.org/2000/svg">
<g clip-path="url(#clip0_2082_1118)">
<path d="M29.2048 50.5453C22.6347 50.5453 16.066 50.5453 9.49597 50.5453C9.1741 50.5453 8.85223 50.5383 8.53173 50.5313C8.03857 50.5201 7.81892 50.276 7.89075 49.7723C8.12698 48.1218 8.34248 46.4685 8.59943 44.8221C8.75967 43.7925 8.87709 43.7185 9.89244 43.7185C14.2343 43.7185 18.5747 43.7171 22.9165 43.7185C24.0507 43.7185 24.1792 43.5957 24.2883 42.4879C24.4375 40.9658 24.6171 39.445 24.7552 37.9214C24.798 37.4499 24.9928 37.288 25.4528 37.3034C26.2789 37.3327 27.1064 37.3341 27.9325 37.3048C28.3898 37.2894 28.6522 37.4959 28.8608 37.8726C29.7739 39.5329 30.7188 41.1765 31.6057 42.8507C31.94 43.4813 32.3503 43.7492 33.0742 43.7297C34.841 43.6836 36.6106 43.7199 38.3802 43.7171C39.2644 43.7171 39.4094 43.4813 38.9549 42.6833C37.9368 40.896 36.9035 39.1185 35.8564 37.348C35.127 36.1147 35.1325 36.0519 36.3495 35.3305C40.0891 33.115 41.5106 28.7075 40.375 24.8037C39.5296 21.8989 37.3815 20.3823 34.5937 19.7615C33.2621 19.4643 31.8682 19.3485 30.502 19.3373C24.8284 19.2913 19.1549 19.3164 13.4814 19.3122C12.3265 19.3122 12.263 19.2703 12.4094 18.1444C12.7354 15.6442 13.1153 13.151 13.4386 10.6508C13.5242 9.98944 13.853 9.80946 14.4553 9.82202C15.8105 9.85132 17.1657 9.83737 18.5208 9.84574C19.4906 9.85132 19.6812 9.70622 19.8967 8.77283C20.9687 4.11424 23.9305 1.36848 28.4409 0.234174C33.1046 -0.937798 39.1083 2.35488 39.8045 8.23986C40.0228 10.0857 40.1471 9.84853 41.6653 9.84016C42.4237 9.83597 43.1821 9.84574 43.9391 9.82621C44.511 9.81225 44.8426 10.0299 44.9241 10.6368C45.2611 13.1593 45.6051 15.6805 45.9657 18.1988C46.5044 21.9575 47.0694 25.712 47.6026 29.4721C48.0502 32.6378 48.4605 35.8077 48.8984 38.9748C49.3681 42.368 49.8544 45.7583 50.3323 49.1501C50.3683 49.4026 50.4 49.6551 50.4249 49.909C50.4663 50.3123 50.2881 50.5229 49.8806 50.5285C49.6513 50.5313 49.422 50.5397 49.1913 50.5397C42.53 50.5397 35.8688 50.5397 29.2076 50.5397V50.5453H29.2048ZM29.7256 9.8555C31.7439 9.8555 33.7621 9.86248 35.7804 9.85271C36.5554 9.84853 36.804 9.62948 36.717 9.00862C36.4421 7.03022 35.5414 5.40201 33.8699 4.30538C29.8182 1.64612 24.3505 4.29003 23.0008 8.78678C22.7549 9.60576 22.9511 9.84713 23.8076 9.85132C25.7802 9.86109 27.7529 9.85411 29.7256 9.8569V9.8555ZM22.6375 13.0142C22.3557 13.8039 22.2092 14.6718 21.1359 14.7555C19.8042 14.8601 19.5762 13.8165 19.2198 12.851C18.7419 13.7202 18.9049 14.4694 19.6343 15.0471C20.4977 15.7307 21.5434 15.7126 22.3336 15.001C22.9373 14.4583 23.0671 13.6867 22.6375 13.0142ZM36.2832 13.1147C35.8757 14.0955 36.0705 14.5908 36.9463 15.1364C37.9506 15.7614 38.9038 15.601 39.7023 14.6718C40.1996 14.0927 40.2438 13.5012 39.7672 12.918C39.5282 13.7997 39.3693 14.6857 38.2089 14.7499C37.0983 14.8113 36.746 13.9979 36.2832 13.1147Z" fill="url(#paint0_linear_2082_1118)"/>
<path d="M8.50411 51.1792C8.74171 51.1792 8.97794 51.1792 9.21554 51.1792C22.8364 51.1834 36.4573 51.1876 50.0795 51.1889C51.1211 51.1889 51.2192 51.0522 51.0714 49.9988C50.2978 44.4961 49.5463 38.9893 48.752 33.4894C47.8223 27.0519 46.8512 20.6214 45.9063 14.1867C45.7792 13.3203 45.6935 12.4469 45.6079 11.7354C46.1259 12.1232 46.7172 12.5376 47.2697 12.9994C47.4023 13.1096 47.4383 13.3691 47.4714 13.5687C48.0447 17.0888 48.6056 20.6116 49.1802 24.1331C50.0312 29.3428 50.8877 34.5525 51.7525 39.7608C52.4846 44.1697 53.232 48.5757 53.9696 52.9832C54.094 53.7296 53.8702 53.9891 53.0759 53.9905C50.342 53.9975 47.6096 53.9961 44.8757 53.9961C34.0343 53.9961 23.1914 53.9877 12.35 54.0003C11.6261 54.0003 11.1274 53.8817 10.9285 53.0515C10.8525 52.7334 10.4505 52.4502 10.1356 52.2465C9.60787 51.9019 9.03043 51.634 8.4751 51.3326C8.48615 51.281 8.49582 51.2308 8.50687 51.1792H8.50411Z" fill="url(#paint1_linear_2082_1118)"/>
<path d="M28.8414 24.8418C29.7062 24.9102 30.5834 24.9088 31.4344 25.0622C32.9553 25.3371 33.7593 26.3961 33.7496 27.9587C33.7358 30.0836 32.2066 31.6755 29.9369 31.8262C28.6577 31.9113 27.3702 31.8611 26.0868 31.882C25.5964 31.8904 25.4459 31.6588 25.5025 31.19C25.7346 29.2855 25.9611 27.3811 26.1711 25.4752C26.2195 25.0371 26.4267 24.8781 26.8439 24.8878C27.5083 24.9032 28.1742 24.892 28.8386 24.892C28.8386 24.8753 28.8414 24.8585 28.8428 24.8418H28.8414Z" fill="url(#paint2_linear_2082_1118)"/>
<path d="M12.376 41.2153C10.9766 41.2153 9.57584 41.1916 8.17783 41.2251C7.50508 41.2418 7.38351 40.9153 7.38628 40.3307C7.38904 39.7406 7.57691 39.5215 8.18888 39.5285C10.9642 39.5564 13.7408 39.5564 16.5161 39.5285C17.1626 39.5215 17.3408 39.7573 17.3477 40.3782C17.356 41.0241 17.1198 41.232 16.5051 41.2195C15.1292 41.1916 13.7519 41.2111 12.376 41.2111V41.2167V41.2153Z" fill="url(#paint3_linear_2082_1118)"/>
<path d="M14.7786 21.963C16.0164 21.963 17.2555 21.9839 18.4919 21.9546C19.0845 21.9407 19.2254 22.2127 19.2337 22.7541C19.242 23.3038 19.0859 23.5619 18.5015 23.5577C16.0481 23.541 13.5961 23.5382 11.1427 23.5549C10.5127 23.5591 10.3152 23.3066 10.3235 22.6829C10.3304 22.0676 10.6108 21.9462 11.1316 21.9546C12.3459 21.9741 13.5616 21.9616 14.7758 21.9616L14.7786 21.963Z" fill="url(#paint4_linear_2082_1118)"/>
<path d="M11.1424 37.6932C10.0897 37.6932 9.03568 37.6764 7.98441 37.6988C7.31028 37.7127 7.28541 37.2997 7.2785 36.7891C7.2716 36.2617 7.45947 36.0385 7.99961 36.0441C10.1049 36.0622 12.2116 36.0678 14.3169 36.0441C14.9468 36.0371 15.0145 36.3761 15.0214 36.877C15.0283 37.3988 14.9081 37.7183 14.3017 37.7043C13.249 37.6792 12.1964 37.6974 11.1437 37.6974C11.1437 37.6974 11.1437 37.696 11.1437 37.6946L11.1424 37.6932Z" fill="url(#paint5_linear_2082_1118)"/>
<path d="M10.6327 27.1008C9.62426 27.1008 8.6172 27.0813 7.60876 27.1078C6.98712 27.1245 6.90147 26.7757 6.90285 26.2693C6.90285 25.7531 7.02165 25.4349 7.62948 25.4405C9.64498 25.4601 11.6605 25.4698 13.676 25.4377C14.3888 25.4266 14.4164 25.8061 14.4302 26.3586C14.4454 26.9557 14.2009 27.1245 13.6553 27.1106C12.6482 27.0855 11.6398 27.1036 10.6313 27.1036C10.6313 27.1036 10.6313 27.1022 10.6313 27.1008H10.6327Z" fill="url(#paint6_linear_2082_1118)"/>
<path d="M15.3686 30.5942C14.4955 30.5942 13.6224 30.5663 12.7508 30.6026C12.0808 30.6305 12.0904 30.2106 12.0808 29.7418C12.0711 29.2618 12.1567 28.9465 12.7521 28.9563C14.4969 28.9828 16.243 28.9814 17.9878 28.9563C18.6122 28.9479 18.6895 29.2786 18.695 29.792C18.702 30.3166 18.6094 30.6291 17.985 30.5998C17.1147 30.5594 16.2402 30.5901 15.3672 30.5901V30.5929L15.3686 30.5942Z" fill="url(#paint7_linear_2082_1118)"/>
<path d="M8.25 30.5901C7.38108 30.5901 6.51078 30.5692 5.64186 30.5971C5.02022 30.618 4.94562 30.272 4.93872 29.7627C4.93181 29.2256 5.07133 28.9465 5.66811 28.9563C7.33826 28.9814 9.0084 28.9828 10.6785 28.9563C11.2767 28.9465 11.4121 29.22 11.4052 29.7586C11.3983 30.3013 11.3154 30.6417 10.6523 30.5999C9.85522 30.5496 9.05123 30.5887 8.25138 30.5887L8.25 30.5901Z" fill="url(#paint8_linear_2082_1118)"/>
<path d="M15.6695 34.1026C14.9829 34.1026 14.2964 34.09 13.6098 34.1081C13.0462 34.1221 12.9287 33.8235 12.9343 33.3213C12.9398 32.8469 12.9964 32.4841 13.5711 32.4883C14.9898 32.4981 16.4086 32.5162 17.8273 32.5162C18.4393 32.5162 18.4254 32.9152 18.4379 33.3617C18.4503 33.8361 18.3287 34.1179 17.7983 34.1068C17.0896 34.0914 16.3795 34.1026 15.6695 34.104V34.1026Z" fill="url(#paint9_linear_2082_1118)"/>
<path d="M4.43838 36.0521C5.01167 36.0521 5.58634 36.0716 6.15825 36.0479C6.69563 36.0256 6.75641 36.3674 6.74674 36.7692C6.73707 37.1711 6.85035 37.6747 6.20798 37.6817C4.99233 37.6956 3.77667 37.6929 2.56102 37.6887C1.91174 37.6859 2.02502 37.1878 2.01259 36.786C2.00016 36.3911 2.03607 36.0326 2.58036 36.0479C3.19924 36.066 3.81811 36.0521 4.43838 36.0521Z" fill="url(#paint10_linear_2082_1118)"/>
<path d="M5.75081 34.1102C5.15403 34.1102 4.55726 34.1033 3.96048 34.1116C3.38857 34.12 3.36923 33.7307 3.36785 33.3108C3.36509 32.8894 3.38857 32.4946 3.95219 32.4946C5.12226 32.4946 6.29233 32.5002 7.46378 32.4932C8.09786 32.489 8.11443 32.9048 8.12272 33.3847C8.13101 33.8619 8.00392 34.1354 7.47207 34.113C6.89878 34.0893 6.32549 34.1074 5.75081 34.1074C5.75081 34.1074 5.75081 34.1088 5.75081 34.1102Z" fill="url(#paint11_linear_2082_1118)"/>
<path d="M17.1613 27.1016C16.7939 27.1016 16.4264 27.0835 16.059 27.1044C15.4981 27.1365 15.1445 27.0207 15.1431 26.3217C15.1417 25.6478 15.3945 25.4078 16.0424 25.4358C16.8671 25.4706 17.696 25.472 18.5207 25.4413C19.2114 25.4148 19.2183 25.8404 19.2293 26.3468C19.2404 26.8547 19.1119 27.1477 18.5372 27.1086C18.08 27.0765 17.62 27.1016 17.16 27.1016H17.1613Z" fill="url(#paint12_linear_2082_1118)"/>
<path d="M1.8594 39.5374C2.15779 39.5374 2.45618 39.5374 2.75457 39.5374C3.61796 39.543 3.66078 39.6169 3.67045 40.5015C3.67598 41.0135 3.47982 41.2214 2.98803 41.2158C2.20752 41.206 1.42701 41.206 0.646508 41.2158C0.00276285 41.227 0 40.7958 0 40.3243C0 39.8401 0.111896 39.5025 0.689332 39.5332C1.07889 39.5541 1.46984 39.5374 1.8594 39.5374Z" fill="url(#paint13_linear_2082_1118)"/>
<path d="M5.50647 39.5453C5.64323 39.5453 5.78138 39.5578 5.91676 39.5425C6.56326 39.4699 6.83402 39.7406 6.80778 40.4089C6.776 41.2209 6.72904 41.2948 5.89189 41.3004C5.64047 41.3018 5.38767 41.2795 5.13901 41.3046C4.10294 41.4079 4.06702 40.8135 4.21898 39.9652C4.24937 39.7978 4.55052 39.6248 4.75774 39.562C4.98844 39.4922 5.25505 39.5467 5.50647 39.5453Z" fill="url(#paint14_linear_2082_1118)"/>
<path d="M10.423 34.1096C10.2171 34.1096 10.0099 34.0957 9.80546 34.1138C9.20592 34.164 8.93378 33.9422 8.93654 33.2864C8.93793 32.6432 9.24046 32.4856 9.7875 32.5093C10.1757 32.526 10.568 32.533 10.9548 32.5051C11.5709 32.4605 11.8693 32.653 11.8804 33.3506C11.8914 34.0719 11.5171 34.1487 10.9741 34.111C10.7918 34.0984 10.6081 34.1096 10.4243 34.111L10.423 34.1096Z" fill="url(#paint15_linear_2082_1118)"/>
<path d="M17.1711 36.0534C17.3093 36.0534 17.4474 36.066 17.5842 36.0506C18.1851 35.9822 18.4489 36.1873 18.4489 36.8556C18.4489 37.503 18.2293 37.75 17.609 37.6942C17.3355 37.6704 17.0592 37.6942 16.7843 37.6914C15.8767 37.6858 15.5852 37.3133 15.8657 36.4413C15.9182 36.2766 16.1654 36.1148 16.3506 36.0687C16.6103 36.006 16.8976 36.0534 17.1725 36.052L17.1711 36.0534Z" fill="url(#paint16_linear_2082_1118)"/>
</g>
<path d="M191.844 39.5298C191.844 39.9298 191.818 40.2898 191.764 40.6098H183.664C183.731 41.4098 184.011 42.0365 184.504 42.4898C184.998 42.9431 185.604 43.1698 186.324 43.1698C187.364 43.1698 188.104 42.7231 188.544 41.8298H191.564C191.244 42.8965 190.631 43.7765 189.724 44.4698C188.818 45.1498 187.704 45.4898 186.384 45.4898C185.318 45.4898 184.358 45.2565 183.504 44.7898C182.664 44.3098 182.004 43.6365 181.524 42.7698C181.058 41.9031 180.824 40.9031 180.824 39.7698C180.824 38.6231 181.058 37.6165 181.524 36.7498C181.991 35.8831 182.644 35.2165 183.484 34.7498C184.324 34.2831 185.291 34.0498 186.384 34.0498C187.438 34.0498 188.378 34.2765 189.204 34.7298C190.044 35.1831 190.691 35.8298 191.144 36.6698C191.611 37.4965 191.844 38.4498 191.844 39.5298ZM188.944 38.7298C188.931 38.0098 188.671 37.4365 188.164 37.0098C187.658 36.5698 187.038 36.3498 186.304 36.3498C185.611 36.3498 185.024 36.5631 184.544 36.9898C184.078 37.4031 183.791 37.9831 183.684 38.7298H188.944Z" fill="white"/>
<path d="M168.793 39.7698C168.793 38.6231 169.026 37.6231 169.493 36.7698C169.96 35.9031 170.606 35.2365 171.433 34.7698C172.26 34.2898 173.206 34.0498 174.273 34.0498C175.646 34.0498 176.78 34.3965 177.673 35.0898C178.58 35.7698 179.186 36.7298 179.493 37.9698H176.473C176.313 37.4898 176.04 37.1165 175.653 36.8498C175.28 36.5698 174.813 36.4298 174.253 36.4298C173.453 36.4298 172.82 36.7231 172.353 37.3098C171.886 37.8831 171.653 38.7031 171.653 39.7698C171.653 40.8231 171.886 41.6431 172.353 42.2298C172.82 42.8031 173.453 43.0898 174.253 43.0898C175.386 43.0898 176.126 42.5831 176.473 41.5698H179.493C179.186 42.7698 178.58 43.7231 177.673 44.4298C176.766 45.1365 175.633 45.4898 174.273 45.4898C173.206 45.4898 172.26 45.2565 171.433 44.7898C170.606 44.3098 169.96 43.6431 169.493 42.7898C169.026 41.9231 168.793 40.9165 168.793 39.7698Z" fill="white"/>
<path d="M164.227 35.9493C164.587 35.3627 165.053 34.9027 165.627 34.5693C166.213 34.236 166.88 34.0693 167.627 34.0693V37.0093H166.887C166.007 37.0093 165.34 37.216 164.887 37.6293C164.447 38.0427 164.227 38.7627 164.227 39.7893V45.3093H161.427V34.2293H164.227V35.9493Z" fill="white"/>
<path d="M159.383 39.5298C159.383 39.9298 159.357 40.2898 159.303 40.6098H151.203C151.27 41.4098 151.55 42.0365 152.043 42.4898C152.537 42.9431 153.143 43.1698 153.863 43.1698C154.903 43.1698 155.643 42.7231 156.083 41.8298H159.103C158.783 42.8965 158.17 43.7765 157.263 44.4698C156.357 45.1498 155.243 45.4898 153.923 45.4898C152.857 45.4898 151.897 45.2565 151.043 44.7898C150.203 44.3098 149.543 43.6365 149.063 42.7698C148.597 41.9031 148.363 40.9031 148.363 39.7698C148.363 38.6231 148.597 37.6165 149.063 36.7498C149.53 35.8831 150.183 35.2165 151.023 34.7498C151.863 34.2831 152.83 34.0498 153.923 34.0498C154.977 34.0498 155.917 34.2765 156.743 34.7298C157.583 35.1831 158.23 35.8298 158.683 36.6698C159.15 37.4965 159.383 38.4498 159.383 39.5298ZM156.483 38.7298C156.47 38.0098 156.21 37.4365 155.703 37.0098C155.197 36.5698 154.577 36.3498 153.843 36.3498C153.15 36.3498 152.563 36.5631 152.083 36.9898C151.617 37.4031 151.33 37.9831 151.223 38.7298H156.483Z" fill="white"/>
<path d="M141.886 34.0693C143.246 34.0693 144.339 34.4893 145.166 35.3293C146.006 36.156 146.426 37.316 146.426 38.8093V45.3093H143.626V39.1893C143.626 38.3227 143.406 37.6627 142.966 37.2093C142.526 36.7427 141.926 36.5093 141.166 36.5093C140.406 36.5093 139.799 36.7427 139.346 37.2093C138.906 37.6627 138.686 38.3227 138.686 39.1893V45.3093H135.886V39.1893C135.886 38.3227 135.666 37.6627 135.226 37.2093C134.786 36.7427 134.186 36.5093 133.426 36.5093C132.653 36.5093 132.039 36.7427 131.586 37.2093C131.146 37.6627 130.926 38.3227 130.926 39.1893V45.3093H128.126V34.2293H130.926V35.5693C131.286 35.1027 131.746 34.736 132.306 34.4693C132.879 34.2027 133.506 34.0693 134.186 34.0693C135.053 34.0693 135.826 34.256 136.506 34.6293C137.186 34.9893 137.713 35.5093 138.086 36.1893C138.446 35.5493 138.966 35.036 139.646 34.6493C140.339 34.2627 141.086 34.0693 141.886 34.0693Z" fill="white"/>
<path d="M120.929 34.0693C122.289 34.0693 123.382 34.4893 124.209 35.3293C125.049 36.156 125.469 37.316 125.469 38.8093V45.3093H122.669V39.1893C122.669 38.3227 122.449 37.6627 122.009 37.2093C121.569 36.7427 120.969 36.5093 120.209 36.5093C119.449 36.5093 118.842 36.7427 118.389 37.2093C117.949 37.6627 117.729 38.3227 117.729 39.1893V45.3093H114.929V39.1893C114.929 38.3227 114.709 37.6627 114.269 37.2093C113.829 36.7427 113.229 36.5093 112.469 36.5093C111.696 36.5093 111.082 36.7427 110.629 37.2093C110.189 37.6627 109.969 38.3227 109.969 39.1893V45.3093H107.169V34.2293H109.969V35.5693C110.329 35.1027 110.789 34.736 111.349 34.4693C111.922 34.2027 112.549 34.0693 113.229 34.0693C114.096 34.0693 114.869 34.256 115.549 34.6293C116.229 34.9893 116.756 35.5093 117.129 36.1893C117.489 35.5493 118.009 35.036 118.689 34.6493C119.382 34.2627 120.129 34.0693 120.929 34.0693Z" fill="white"/>
<path d="M99.3353 45.4898C98.2687 45.4898 97.3087 45.2565 96.4553 44.7898C95.602 44.3098 94.9287 43.6365 94.4353 42.7698C93.9553 41.9031 93.7153 40.9031 93.7153 39.7698C93.7153 38.6365 93.962 37.6365 94.4553 36.7698C94.962 35.9031 95.6487 35.2365 96.5153 34.7698C97.382 34.2898 98.3487 34.0498 99.4153 34.0498C100.482 34.0498 101.449 34.2898 102.315 34.7698C103.182 35.2365 103.862 35.9031 104.355 36.7698C104.862 37.6365 105.115 38.6365 105.115 39.7698C105.115 40.9031 104.855 41.9031 104.335 42.7698C103.829 43.6365 103.135 44.3098 102.255 44.7898C101.389 45.2565 100.415 45.4898 99.3353 45.4898ZM99.3353 43.0498C99.842 43.0498 100.315 42.9298 100.755 42.6898C101.209 42.4365 101.569 42.0631 101.835 41.5698C102.102 41.0765 102.235 40.4765 102.235 39.7698C102.235 38.7165 101.955 37.9098 101.395 37.3498C100.849 36.7765 100.175 36.4898 99.3753 36.4898C98.5753 36.4898 97.902 36.7765 97.3553 37.3498C96.822 37.9098 96.5553 38.7165 96.5553 39.7698C96.5553 40.8231 96.8153 41.6365 97.3353 42.2098C97.8687 42.7698 98.5353 43.0498 99.3353 43.0498Z" fill="white"/>
<path d="M78.3838 38.3099C78.3838 36.9366 78.6905 35.7099 79.3038 34.6299C79.9305 33.5366 80.7771 32.6899 81.8438 32.0899C82.9238 31.4766 84.1305 31.1699 85.4638 31.1699C87.0238 31.1699 88.3905 31.5699 89.5638 32.3699C90.7371 33.1699 91.5571 34.2766 92.0238 35.6899H88.8038C88.4838 35.0233 88.0305 34.5233 87.4438 34.1899C86.8705 33.8566 86.2038 33.6899 85.4438 33.6899C84.6305 33.6899 83.9038 33.8833 83.2638 34.2699C82.6371 34.6433 82.1438 35.1766 81.7838 35.8699C81.4371 36.5633 81.2638 37.3766 81.2638 38.3099C81.2638 39.2299 81.4371 40.0433 81.7838 40.7499C82.1438 41.4433 82.6371 41.9833 83.2638 42.3699C83.9038 42.7433 84.6305 42.9299 85.4438 42.9299C86.2038 42.9299 86.8705 42.7633 87.4438 42.4299C88.0305 42.0833 88.4838 41.5766 88.8038 40.9099H92.0238C91.5571 42.3366 90.7371 43.4499 89.5638 44.2499C88.4038 45.0366 87.0371 45.4299 85.4638 45.4299C84.1305 45.4299 82.9238 45.1299 81.8438 44.5299C80.7771 43.9166 79.9305 43.0699 79.3038 41.9899C78.6905 40.9099 78.3838 39.6833 78.3838 38.3099Z" fill="white"/>
<path d="M77.02 39.5298C77.02 39.9298 76.9933 40.2898 76.94 40.6098H68.84C68.9067 41.4098 69.1867 42.0365 69.68 42.4898C70.1733 42.9431 70.78 43.1698 71.5 43.1698C72.54 43.1698 73.28 42.7231 73.72 41.8298H76.74C76.42 42.8965 75.8067 43.7765 74.9 44.4698C73.9933 45.1498 72.88 45.4898 71.56 45.4898C70.4933 45.4898 69.5333 45.2565 68.68 44.7898C67.84 44.3098 67.18 43.6365 66.7 42.7698C66.2333 41.9031 66 40.9031 66 39.7698C66 38.6231 66.2333 37.6165 66.7 36.7498C67.1667 35.8831 67.82 35.2165 68.66 34.7498C69.5 34.2831 70.4667 34.0498 71.56 34.0498C72.6133 34.0498 73.5533 34.2765 74.38 34.7298C75.22 35.1831 75.8667 35.8298 76.32 36.6698C76.7867 37.4965 77.02 38.4498 77.02 39.5298ZM74.12 38.7298C74.1067 38.0098 73.8467 37.4365 73.34 37.0098C72.8333 36.5698 72.2133 36.3498 71.48 36.3498C70.7867 36.3498 70.2 36.5631 69.72 36.9898C69.2533 37.4031 68.9667 37.9831 68.86 38.7298H74.12Z" fill="white"/>
<path d="M129.586 12.2295L122.726 28.5495H119.746L122.146 23.0295L117.706 12.2295H120.846L123.706 19.9695L126.606 12.2295H129.586Z" fill="white"/>
<path d="M104.711 17.7298C104.711 16.6098 104.931 15.6164 105.371 14.7498C105.824 13.8831 106.438 13.2164 107.211 12.7498C107.984 12.2831 108.844 12.0498 109.791 12.0498C110.511 12.0498 111.198 12.2098 111.851 12.5298C112.504 12.8364 113.024 13.2498 113.411 13.7698V8.50977H116.251V23.3098H113.411V21.6698C113.064 22.2164 112.578 22.6564 111.951 22.9898C111.324 23.3231 110.598 23.4898 109.771 23.4898C108.838 23.4898 107.984 23.2498 107.211 22.7698C106.438 22.2898 105.824 21.6164 105.371 20.7498C104.931 19.8698 104.711 18.8631 104.711 17.7298ZM113.431 17.7698C113.431 17.0898 113.298 16.5098 113.031 16.0298C112.764 15.5364 112.404 15.1631 111.951 14.9098C111.498 14.6431 111.011 14.5098 110.491 14.5098C109.971 14.5098 109.491 14.6364 109.051 14.8898C108.611 15.1431 108.251 15.5164 107.971 16.0098C107.704 16.4898 107.571 17.0631 107.571 17.7298C107.571 18.3964 107.704 18.9831 107.971 19.4898C108.251 19.9831 108.611 20.3631 109.051 20.6298C109.504 20.8964 109.984 21.0298 110.491 21.0298C111.011 21.0298 111.498 20.9031 111.951 20.6498C112.404 20.3831 112.764 20.0098 113.031 19.5298C113.298 19.0364 113.431 18.4498 113.431 17.7698Z" fill="white"/>
<path d="M91.1562 17.7298C91.1562 16.6098 91.3762 15.6165 91.8162 14.7498C92.2696 13.8831 92.8762 13.2165 93.6362 12.7498C94.4096 12.2831 95.2696 12.0498 96.2163 12.0498C97.0429 12.0498 97.7629 12.2165 98.3763 12.5498C99.0029 12.8831 99.5029 13.3031 99.8763 13.8098V12.2298H102.696V23.3098H99.8763V21.6898C99.5163 22.2098 99.0163 22.6431 98.3763 22.9898C97.7496 23.3231 97.0229 23.4898 96.1963 23.4898C95.2629 23.4898 94.4096 23.2498 93.6362 22.7698C92.8762 22.2898 92.2696 21.6165 91.8162 20.7498C91.3762 19.8698 91.1562 18.8631 91.1562 17.7298ZM99.8763 17.7698C99.8763 17.0898 99.7429 16.5098 99.4762 16.0298C99.2096 15.5365 98.8496 15.1631 98.3963 14.9098C97.9429 14.6431 97.4563 14.5098 96.9363 14.5098C96.4163 14.5098 95.9363 14.6365 95.4963 14.8898C95.0563 15.1431 94.6963 15.5165 94.4163 16.0098C94.1496 16.4898 94.0163 17.0631 94.0163 17.7298C94.0163 18.3965 94.1496 18.9831 94.4163 19.4898C94.6963 19.9831 95.0563 20.3631 95.4963 20.6298C95.9496 20.8965 96.4296 21.0298 96.9363 21.0298C97.4563 21.0298 97.9429 20.9031 98.3963 20.6498C98.8496 20.3831 99.2096 20.0098 99.4762 19.5298C99.7429 19.0365 99.8763 18.4498 99.8763 17.7698Z" fill="white"/>
<path d="M89.8325 17.5298C89.8325 17.9298 89.8058 18.2898 89.7525 18.6098H81.6525C81.7192 19.4098 81.9992 20.0365 82.4925 20.4898C82.9858 20.9431 83.5925 21.1698 84.3125 21.1698C85.3525 21.1698 86.0925 20.7231 86.5325 19.8298H89.5525C89.2325 20.8965 88.6192 21.7765 87.7125 22.4698C86.8058 23.1498 85.6925 23.4898 84.3725 23.4898C83.3058 23.4898 82.3458 23.2565 81.4925 22.7898C80.6525 22.3098 79.9925 21.6365 79.5125 20.7698C79.0458 19.9031 78.8125 18.9031 78.8125 17.7698C78.8125 16.6231 79.0458 15.6165 79.5125 14.7498C79.9792 13.8831 80.6325 13.2165 81.4725 12.7498C82.3125 12.2831 83.2792 12.0498 84.3725 12.0498C85.4258 12.0498 86.3658 12.2765 87.1925 12.7298C88.0325 13.1831 88.6792 13.8298 89.1325 14.6698C89.5992 15.4965 89.8325 16.4498 89.8325 17.5298ZM86.9325 16.7298C86.9192 16.0098 86.6592 15.4365 86.1525 15.0098C85.6458 14.5698 85.0258 14.3498 84.2925 14.3498C83.5992 14.3498 83.0125 14.5631 82.5325 14.9898C82.0658 15.4031 81.7792 15.9831 81.6725 16.7298H86.9325Z" fill="white"/>
<path d="M73.9197 23.3096L70.8397 17.8696H69.5197V23.3096H66.7197V9.34961H71.9597C73.0397 9.34961 73.9597 9.54294 74.7197 9.92961C75.4797 10.3029 76.0464 10.8163 76.4197 11.4696C76.8064 12.1096 76.9997 12.8296 76.9997 13.6296C76.9997 14.5496 76.7331 15.3829 76.1997 16.1296C75.6664 16.8629 74.8731 17.3696 73.8197 17.6496L77.1597 23.3096H73.9197ZM69.5197 15.7696H71.8597C72.6197 15.7696 73.1864 15.5896 73.5597 15.2296C73.9331 14.8563 74.1197 14.3429 74.1197 13.6896C74.1197 13.0496 73.9331 12.5563 73.5597 12.2096C73.1864 11.8496 72.6197 11.6696 71.8597 11.6696H69.5197V15.7696Z" fill="white"/>
<defs>
<linearGradient id="paint0_linear_2082_1118" x1="14.306" y1="-2.4383" x2="24.7495" y2="64.9514" gradientUnits="userSpaceOnUse">
<stop stop-color="#D63384"/>
<stop offset="1" stop-color="#DC3545"/>
</linearGradient>
<linearGradient id="paint1_linear_2082_1118" x1="15.3529" y1="9.69735" x2="22.2407" y2="66.5653" gradientUnits="userSpaceOnUse">
<stop stop-color="#D63384"/>
<stop offset="1" stop-color="#DC3545"/>
</linearGradient>
<linearGradient id="paint2_linear_2082_1118" x1="26.7388" y1="24.5023" x2="27.7948" y2="33.9968" gradientUnits="userSpaceOnUse">
<stop stop-color="#D63384"/>
<stop offset="1" stop-color="#DC3545"/>
</linearGradient>
<linearGradient id="paint3_linear_2082_1118" x1="8.89117" y1="39.4465" x2="8.94265" y2="41.7626" gradientUnits="userSpaceOnUse">
<stop stop-color="#D63384"/>
<stop offset="1" stop-color="#DC3545"/>
</linearGradient>
<linearGradient id="paint4_linear_2082_1118" x1="11.6694" y1="21.8768" x2="11.7208" y2="24.065" gradientUnits="userSpaceOnUse">
<stop stop-color="#D63384"/>
<stop offset="1" stop-color="#DC3545"/>
</linearGradient>
<linearGradient id="paint5_linear_2082_1118" x1="8.44812" y1="35.9639" x2="8.51152" y2="38.2295" gradientUnits="userSpaceOnUse">
<stop stop-color="#D63384"/>
<stop offset="1" stop-color="#DC3545"/>
</linearGradient>
<linearGradient id="paint6_linear_2082_1118" x1="8.04011" y1="25.3568" x2="8.10635" y2="27.6401" gradientUnits="userSpaceOnUse">
<stop stop-color="#D63384"/>
<stop offset="1" stop-color="#DC3545"/>
</linearGradient>
<linearGradient id="paint7_linear_2082_1118" x1="13.0795" y1="28.8766" x2="13.1525" y2="31.124" gradientUnits="userSpaceOnUse">
<stop stop-color="#D63384"/>
<stop offset="1" stop-color="#DC3545"/>
</linearGradient>
<linearGradient id="paint8_linear_2082_1118" x1="5.91545" y1="28.8766" x2="5.99011" y2="31.1231" gradientUnits="userSpaceOnUse">
<stop stop-color="#D63384"/>
<stop offset="1" stop-color="#DC3545"/>
</linearGradient>
<linearGradient id="paint9_linear_2082_1118" x1="13.7657" y1="32.4101" x2="13.8505" y2="34.6191" gradientUnits="userSpaceOnUse">
<stop stop-color="#D63384"/>
<stop offset="1" stop-color="#DC3545"/>
</linearGradient>
<linearGradient id="paint10_linear_2082_1118" x1="2.72654" y1="35.9675" x2="2.82809" y2="38.2091" gradientUnits="userSpaceOnUse">
<stop stop-color="#D63384"/>
<stop offset="1" stop-color="#DC3545"/>
</linearGradient>
<linearGradient id="paint11_linear_2082_1118" x1="4.08609" y1="32.415" x2="4.18433" y2="34.6239" gradientUnits="userSpaceOnUse">
<stop stop-color="#D63384"/>
<stop offset="1" stop-color="#DC3545"/>
</linearGradient>
<linearGradient id="paint12_linear_2082_1118" x1="15.7605" y1="25.3527" x2="15.8829" y2="27.6376" gradientUnits="userSpaceOnUse">
<stop stop-color="#D63384"/>
<stop offset="1" stop-color="#DC3545"/>
</linearGradient>
<linearGradient id="paint13_linear_2082_1118" x1="0.554519" y1="39.45" x2="0.691765" y2="41.7419" gradientUnits="userSpaceOnUse">
<stop stop-color="#D63384"/>
<stop offset="1" stop-color="#DC3545"/>
</linearGradient>
<linearGradient id="paint14_linear_2082_1118" x1="4.55418" y1="39.4401" x2="4.76733" y2="41.865" gradientUnits="userSpaceOnUse">
<stop stop-color="#D63384"/>
<stop offset="1" stop-color="#DC3545"/>
</linearGradient>
<linearGradient id="paint15_linear_2082_1118" x1="9.38129" y1="32.4208" x2="9.53956" y2="34.6233" gradientUnits="userSpaceOnUse">
<stop stop-color="#D63384"/>
<stop offset="1" stop-color="#DC3545"/>
</linearGradient>
<linearGradient id="paint16_linear_2082_1118" x1="16.1689" y1="35.9558" x2="16.3517" y2="38.2151" gradientUnits="userSpaceOnUse">
<stop stop-color="#D63384"/>
<stop offset="1" stop-color="#DC3545"/>
</linearGradient>
<clipPath id="clip0_2082_1118">
<rect width="54" height="54" fill="white"/>
</clipPath>
</defs>
</svg>
